<?xml version="1.0" encoding="utf-8"?>
<!-- Generator: Adobe Illustrator 24.1.0, SVG Export Plug-In . SVG Version: 6.00 Build 0)  -->
<svg version="1.1" id="Layer_1" xmlns="http://www.w3.org/2000/svg" xmlns:xlink="http://www.w3.org/1999/xlink" x="0px" y="0px"
	 viewBox="0 0 616.9 360" style="enable-background:new 0 0 616.9 360;" xml:space="preserve">
<style type="text/css">
	.st0{fill:#434343;}
	.st1{fill:none;stroke:#FFFFFF;stroke-miterlimit:10;}
	.st2{fill:none;stroke:#767676;stroke-miterlimit:10;}
	.st3{clip-path:url(#SVGID_2_);fill:none;stroke:#000000;stroke-width:2;stroke-miterlimit:10;stroke-opacity:0;}
	.st4{clip-path:url(#SVGID_4_);fill:#3C78D8;}
	.st5{clip-path:url(#SVGID_6_);fill:none;stroke:#000000;stroke-width:2;stroke-miterlimit:10;stroke-opacity:0;}
	.st6{clip-path:url(#SVGID_8_);fill:#4285F4;}
	.st7{clip-path:url(#SVGID_10_);fill:none;stroke:#000000;stroke-width:2;stroke-miterlimit:10;stroke-opacity:0;}
	.st8{clip-path:url(#SVGID_12_);fill:#4285F4;}
	.st9{clip-path:url(#SVGID_14_);fill:none;stroke:#000000;stroke-width:2;stroke-miterlimit:10;stroke-opacity:0;}
	.st10{clip-path:url(#SVGID_16_);fill:#3C78D8;}
	.st11{clip-path:url(#SVGID_18_);fill:none;stroke:#000000;stroke-width:2;stroke-miterlimit:10;stroke-opacity:0;}
	.st12{clip-path:url(#SVGID_20_);fill:#3C78D8;}
	.st13{clip-path:url(#SVGID_22_);fill:none;stroke:#000000;stroke-width:2;stroke-miterlimit:10;stroke-opacity:0;}
	.st14{clip-path:url(#SVGID_24_);fill:#3C78D8;}
	.st15{clip-path:url(#SVGID_26_);fill:none;stroke:#000000;stroke-width:2;stroke-miterlimit:10;stroke-opacity:0;}
	.st16{clip-path:url(#SVGID_28_);fill:#3C78D8;}
	.st17{clip-path:url(#SVGID_30_);fill:none;stroke:#000000;stroke-width:2;stroke-miterlimit:10;stroke-opacity:0;}
	.st18{clip-path:url(#SVGID_32_);fill:#FF00FF;}
	.st19{clip-path:url(#SVGID_34_);fill:none;stroke:#000000;stroke-width:2;stroke-miterlimit:10;stroke-opacity:0;}
	.st20{clip-path:url(#SVGID_36_);fill:#FF00FF;}
	.st21{clip-path:url(#SVGID_38_);fill:none;stroke:#000000;stroke-width:2;stroke-miterlimit:10;stroke-opacity:0;}
	.st22{clip-path:url(#SVGID_40_);fill:#FF00FF;}
	.st23{clip-path:url(#SVGID_42_);fill:none;stroke:#76A5AF;stroke-width:2;stroke-miterlimit:10;}
	.st24{clip-path:url(#SVGID_44_);fill:#FF00FF;}
	.st25{clip-path:url(#SVGID_46_);fill:none;stroke:#000000;stroke-width:2;stroke-miterlimit:10;stroke-opacity:0;}
	.st26{clip-path:url(#SVGID_48_);fill:#FF00FF;}
	.st27{clip-path:url(#SVGID_50_);fill:none;stroke:#000000;stroke-width:2;stroke-miterlimit:10;stroke-opacity:0;}
	.st28{clip-path:url(#SVGID_52_);fill:#FF00FF;}
	.st29{clip-path:url(#SVGID_54_);fill:none;stroke:#000000;stroke-width:2;stroke-miterlimit:10;stroke-opacity:0;}
	.st30{clip-path:url(#SVGID_56_);fill:#EA4335;}
	.st31{fill:#FFFFFF;}
	.st32{fill:#4285F4;}
	.st33{fill:#EA4335;}
	.st34{fill:#FF00FF;}
	.st35{opacity:0.12;fill:#FFFFFF;enable-background:new    ;}
	.st36{font-family:'Helvetica';}
	.st37{font-size:20.0522px;}
	.st38{font-family:'MyriadPro-Regular';}
	.st39{font-size:14.4156px;}
</style>
<path class="st0" d="M0,0h616.9v360H0V0z"/>
<path class="st1" d="M79.4,296.5h520"/>
<path class="st2" d="M79.4,237.5h520"/>
<path class="st2" d="M79.4,178.5h520"/>
<path class="st2" d="M79.4,119.5h520"/>
<path class="st2" d="M79.4,61.5h520"/>
<g>
	<g>
		<defs>
			<rect id="SVGID_1_" x="78.9" y="61" width="520" height="235"/>
		</defs>
		<clipPath id="SVGID_2_">
			<use xlink:href="#SVGID_1_"  style="overflow:visible;"/>
		</clipPath>
		<path class="st3" d="M125.9,296h-21V150c0-1.1,0.9-2,2-2h17c1.1,0,2,0.9,2,2V296z"/>
	</g>
</g>
<g>
	<g>
		<defs>
			<rect id="SVGID_3_" x="78.9" y="61" width="520" height="235"/>
		</defs>
		<clipPath id="SVGID_4_">
			<use xlink:href="#SVGID_3_"  style="overflow:visible;"/>
		</clipPath>
		<path class="st4" d="M125.9,296h-21V150c0-1.1,0.9-2,2-2h17c1.1,0,2,0.9,2,2V296z"/>
	</g>
</g>
<g>
	<g>
		<defs>
			<rect id="SVGID_5_" x="78.9" y="61" width="520" height="235"/>
		</defs>
		<clipPath id="SVGID_6_">
			<use xlink:href="#SVGID_5_"  style="overflow:visible;"/>
		</clipPath>
		<path class="st5" d="M196.9,296h-21V134c0-1.1,0.9-2,2-2h17c1.1,0,2,0.9,2,2V296z"/>
	</g>
</g>
<g>
	<g>
		<defs>
			<rect id="SVGID_7_" x="78.9" y="61" width="520" height="235"/>
		</defs>
		<clipPath id="SVGID_8_">
			<use xlink:href="#SVGID_7_"  style="overflow:visible;"/>
		</clipPath>
		<path class="st6" d="M196.9,296h-21V134c0-1.1,0.9-2,2-2h17c1.1,0,2,0.9,2,2V296z"/>
	</g>
</g>
<g>
	<g>
		<defs>
			<rect id="SVGID_9_" x="78.9" y="61" width="520" height="235"/>
		</defs>
		<clipPath id="SVGID_10_">
			<use xlink:href="#SVGID_9_"  style="overflow:visible;"/>
		</clipPath>
		<path class="st7" d="M266.9,296h-21V126c0-1.1,0.9-2,2-2h17c1.1,0,2,0.9,2,2V296z"/>
	</g>
</g>
<g>
	<g>
		<defs>
			<rect id="SVGID_11_" x="78.9" y="61" width="520" height="235"/>
		</defs>
		<clipPath id="SVGID_12_">
			<use xlink:href="#SVGID_11_"  style="overflow:visible;"/>
		</clipPath>
		<path class="st8" d="M266.9,296h-21V126c0-1.1,0.9-2,2-2h17c1.1,0,2,0.9,2,2V296z"/>
	</g>
</g>
<g>
	<g>
		<defs>
			<rect id="SVGID_13_" x="78.9" y="61" width="520" height="235"/>
		</defs>
		<clipPath id="SVGID_14_">
			<use xlink:href="#SVGID_13_"  style="overflow:visible;"/>
		</clipPath>
		<path class="st9" d="M337.9,296h-21V186c0-1.1,0.9-2,2-2h17c1.1,0,2,0.9,2,2V296z"/>
	</g>
</g>
<g>
	<g>
		<defs>
			<rect id="SVGID_15_" x="78.9" y="61" width="520" height="235"/>
		</defs>
		<clipPath id="SVGID_16_">
			<use xlink:href="#SVGID_15_"  style="overflow:visible;"/>
		</clipPath>
		<path class="st10" d="M337.9,296h-21V186c0-1.1,0.9-2,2-2h17c1.1,0,2,0.9,2,2V296z"/>
	</g>
</g>
<g>
	<g>
		<defs>
			<rect id="SVGID_17_" x="78.9" y="61" width="520" height="235"/>
		</defs>
		<clipPath id="SVGID_18_">
			<use xlink:href="#SVGID_17_"  style="overflow:visible;"/>
		</clipPath>
		<path class="st11" d="M408.9,296h-21V175c0-1.1,0.9-2,2-2h17c1.1,0,2,0.9,2,2V296z"/>
	</g>
</g>
<g>
	<g>
		<defs>
			<rect id="SVGID_19_" x="78.9" y="61" width="520" height="235"/>
		</defs>
		<clipPath id="SVGID_20_">
			<use xlink:href="#SVGID_19_"  style="overflow:visible;"/>
		</clipPath>
		<path class="st12" d="M408.9,296h-21V175c0-1.1,0.9-2,2-2h17c1.1,0,2,0.9,2,2V296z"/>
	</g>
</g>
<g>
	<g>
		<defs>
			<rect id="SVGID_21_" x="78.9" y="61" width="520" height="235"/>
		</defs>
		<clipPath id="SVGID_22_">
			<use xlink:href="#SVGID_21_"  style="overflow:visible;"/>
		</clipPath>
		<path class="st13" d="M478.9,296h-21V172c0-1.1,0.9-2,2-2h17c1.1,0,2,0.9,2,2V296z"/>
	</g>
</g>
<g>
	<g>
		<defs>
			<rect id="SVGID_23_" x="78.9" y="61" width="520" height="235"/>
		</defs>
		<clipPath id="SVGID_24_">
			<use xlink:href="#SVGID_23_"  style="overflow:visible;"/>
		</clipPath>
		<path class="st14" d="M478.9,296h-21V172c0-1.1,0.9-2,2-2h17c1.1,0,2,0.9,2,2V296z"/>
	</g>
</g>
<g>
	<g>
		<defs>
			<rect id="SVGID_25_" x="78.9" y="61" width="520" height="235"/>
		</defs>
		<clipPath id="SVGID_26_">
			<use xlink:href="#SVGID_25_"  style="overflow:visible;"/>
		</clipPath>
		<path class="st15" d="M549.9,296h-21v-62c0-1.1,0.9-2,2-2h17c1.1,0,2,0.9,2,2V296z"/>
	</g>
</g>
<g>
	<g>
		<defs>
			<rect id="SVGID_27_" x="78.9" y="61" width="520" height="235"/>
		</defs>
		<clipPath id="SVGID_28_">
			<use xlink:href="#SVGID_27_"  style="overflow:visible;"/>
		</clipPath>
		<path class="st16" d="M549.9,296h-21v-62c0-1.1,0.9-2,2-2h17c1.1,0,2,0.9,2,2V296z"/>
	</g>
</g>
<g>
	<g>
		<defs>
			<rect id="SVGID_29_" x="78.9" y="61" width="520" height="235"/>
		</defs>
		<clipPath id="SVGID_30_">
			<use xlink:href="#SVGID_29_"  style="overflow:visible;"/>
		</clipPath>
		<path class="st17" d="M148.9,296h-21V124c0-1.1,0.9-2,2-2h17c1.1,0,2,0.9,2,2V296z"/>
	</g>
</g>
<g>
	<g>
		<defs>
			<rect id="SVGID_31_" x="78.9" y="61" width="520" height="235"/>
		</defs>
		<clipPath id="SVGID_32_">
			<use xlink:href="#SVGID_31_"  style="overflow:visible;"/>
		</clipPath>
		<path class="st18" d="M148.9,296h-21V124c0-1.1,0.9-2,2-2h17c1.1,0,2,0.9,2,2V296z"/>
	</g>
</g>
<g>
	<g>
		<defs>
			<rect id="SVGID_33_" x="78.9" y="61" width="520" height="235"/>
		</defs>
		<clipPath id="SVGID_34_">
			<use xlink:href="#SVGID_33_"  style="overflow:visible;"/>
		</clipPath>
		<path class="st19" d="M219.9,296h-21V110c0-1.1,0.9-2,2-2h17c1.1,0,2,0.9,2,2V296z"/>
	</g>
</g>
<g>
	<g>
		<defs>
			<rect id="SVGID_35_" x="78.9" y="61" width="520" height="235"/>
		</defs>
		<clipPath id="SVGID_36_">
			<use xlink:href="#SVGID_35_"  style="overflow:visible;"/>
		</clipPath>
		<path class="st20" d="M219.9,296h-21V110c0-1.1,0.9-2,2-2h17c1.1,0,2,0.9,2,2V296z"/>
	</g>
</g>
<g>
	<g>
		<defs>
			<rect id="SVGID_37_" x="78.9" y="61" width="520" height="235"/>
		</defs>
		<clipPath id="SVGID_38_">
			<use xlink:href="#SVGID_37_"  style="overflow:visible;"/>
		</clipPath>
		<path class="st21" d="M289.9,296h-21V87c0-1.1,0.9-2,2-2h17c1.1,0,2,0.9,2,2V296z"/>
	</g>
</g>
<g>
	<g>
		<defs>
			<rect id="SVGID_39_" x="78.9" y="61" width="520" height="235"/>
		</defs>
		<clipPath id="SVGID_40_">
			<use xlink:href="#SVGID_39_"  style="overflow:visible;"/>
		</clipPath>
		<path class="st22" d="M289.9,296h-21V87c0-1.1,0.9-2,2-2h17c1.1,0,2,0.9,2,2V296z"/>
	</g>
</g>
<g>
	<g>
		<defs>
			<rect id="SVGID_41_" x="78.9" y="61" width="520" height="235"/>
		</defs>
		<clipPath id="SVGID_42_">
			<use xlink:href="#SVGID_41_"  style="overflow:visible;"/>
		</clipPath>
		<path class="st23" d="M360.9,296h-21V181c0-1.1,0.9-2,2-2h17c1.1,0,2,0.9,2,2V296z"/>
	</g>
</g>
<g>
	<g>
		<defs>
			<rect id="SVGID_43_" x="78.9" y="61" width="520" height="235"/>
		</defs>
		<clipPath id="SVGID_44_">
			<use xlink:href="#SVGID_43_"  style="overflow:visible;"/>
		</clipPath>
		<path class="st24" d="M360.9,296h-21V181c0-1.1,0.9-2,2-2h17c1.1,0,2,0.9,2,2V296z"/>
	</g>
</g>
<g>
	<g>
		<defs>
			<rect id="SVGID_45_" x="78.9" y="61" width="520" height="235"/>
		</defs>
		<clipPath id="SVGID_46_">
			<use xlink:href="#SVGID_45_"  style="overflow:visible;"/>
		</clipPath>
		<path class="st25" d="M431.9,296h-21V172c0-1.1,0.9-2,2-2h17c1.1,0,2,0.9,2,2V296z"/>
	</g>
</g>
<g>
	<g>
		<defs>
			<rect id="SVGID_47_" x="78.9" y="61" width="520" height="235"/>
		</defs>
		<clipPath id="SVGID_48_">
			<use xlink:href="#SVGID_47_"  style="overflow:visible;"/>
		</clipPath>
		<path class="st26" d="M431.9,296h-21V172c0-1.1,0.9-2,2-2h17c1.1,0,2,0.9,2,2V296z"/>
	</g>
</g>
<g>
	<g>
		<defs>
			<rect id="SVGID_49_" x="78.9" y="61" width="520" height="235"/>
		</defs>
		<clipPath id="SVGID_50_">
			<use xlink:href="#SVGID_49_"  style="overflow:visible;"/>
		</clipPath>
		<path class="st27" d="M501.9,296h-21V172c0-1.1,0.9-2,2-2h17c1.1,0,2,0.9,2,2V296z"/>
	</g>
</g>
<g>
	<g>
		<defs>
			<rect id="SVGID_51_" x="78.9" y="61" width="520" height="235"/>
		</defs>
		<clipPath id="SVGID_52_">
			<use xlink:href="#SVGID_51_"  style="overflow:visible;"/>
		</clipPath>
		<path class="st28" d="M501.9,296h-21V172c0-1.1,0.9-2,2-2h17c1.1,0,2,0.9,2,2V296z"/>
	</g>
</g>
<g>
	<g>
		<defs>
			<rect id="SVGID_53_" x="78.9" y="61" width="520" height="235"/>
		</defs>
		<clipPath id="SVGID_54_">
			<use xlink:href="#SVGID_53_"  style="overflow:visible;"/>
		</clipPath>
		<path class="st29" d="M572.9,296h-21l0,0H572.9z"/>
	</g>
</g>
<g>
	<g>
		<defs>
			<rect id="SVGID_55_" x="78.9" y="61" width="520" height="235"/>
		</defs>
		<clipPath id="SVGID_56_">
			<use xlink:href="#SVGID_55_"  style="overflow:visible;"/>
		</clipPath>
		<path class="st30" d="M572.9,296h-21l0,0H572.9z"/>
	</g>
</g>
<path class="st31" d="M44.9,301.2v-1c-0.5-0.1-0.9-0.2-1.3-0.4c-0.4-0.2-0.6-0.4-0.9-0.8c-0.2-0.4-0.4-0.9-0.4-1.4l1.1-0.2
	c0.1,0.6,0.2,1,0.4,1.2c0.3,0.4,0.7,0.6,1.1,0.6v-3.4c-0.4-0.1-0.9-0.3-1.3-0.5c-0.3-0.2-0.6-0.4-0.8-0.8c-0.2-0.3-0.3-0.7-0.3-1.1
	c0-0.8,0.3-1.4,0.8-1.8c0.4-0.3,0.9-0.5,1.6-0.6v-0.5h0.6v0.5c0.6,0.1,1.1,0.2,1.5,0.5c0.5,0.4,0.8,0.9,0.8,1.6l-1.1,0.2
	c-0.1-0.4-0.2-0.7-0.4-1c-0.2-0.3-0.5-0.4-0.8-0.4v3c0.5,0.1,0.9,0.2,1.1,0.3c0.3,0.1,0.6,0.3,0.8,0.5c0.2,0.2,0.4,0.5,0.5,0.8
	c0.1,0.3,0.2,0.6,0.2,0.9c0,0.7-0.2,1.3-0.7,1.8s-1.1,0.8-1.8,0.8v1.1L44.9,301.2L44.9,301.2z M44.9,292c-0.4,0.1-0.7,0.2-1,0.5
	c-0.2,0.3-0.3,0.6-0.3,0.9c0,0.4,0.1,0.7,0.3,0.9c0.2,0.2,0.5,0.4,1,0.6V292z M45.5,299.3c0.4-0.1,0.7-0.2,1-0.5s0.4-0.7,0.4-1.1
	s-0.1-0.7-0.3-0.9c-0.2-0.2-0.6-0.4-1.1-0.6V299.3z M49.4,295.8c0-1,0.1-1.8,0.3-2.5c0.2-0.6,0.5-1.1,0.9-1.4s0.9-0.5,1.6-0.5
	c0.5,0,0.9,0.1,1.2,0.3c0.4,0.2,0.6,0.5,0.9,0.8c0.2,0.3,0.4,0.8,0.5,1.3s0.2,1.2,0.2,2c0,1-0.1,1.8-0.3,2.4s-0.5,1.1-0.9,1.4
	s-0.9,0.5-1.6,0.5c-0.8,0-1.5-0.3-2-0.9C49.7,298.5,49.4,297.4,49.4,295.8z M50.5,295.8c0,1.4,0.2,2.3,0.5,2.8s0.7,0.7,1.2,0.7
	s0.9-0.2,1.2-0.7s0.5-1.4,0.5-2.8s-0.2-2.4-0.5-2.8c-0.3-0.5-0.7-0.7-1.2-0.7s-0.9,0.2-1.2,0.6C50.7,293.4,50.5,294.3,50.5,295.8z
	 M57,300v-1.2h1.2v1.2H57z M59.4,295.8c0-1,0.1-1.8,0.3-2.5c0.2-0.6,0.5-1.1,0.9-1.4s0.9-0.5,1.6-0.5c0.5,0,0.9,0.1,1.2,0.3
	c0.4,0.2,0.6,0.5,0.9,0.8c0.2,0.3,0.4,0.8,0.5,1.3s0.2,1.2,0.2,2c0,1-0.1,1.8-0.3,2.4c-0.2,0.6-0.5,1.1-0.9,1.4s-0.9,0.5-1.6,0.5
	c-0.8,0-1.5-0.3-2-0.9C59.7,298.5,59.4,297.4,59.4,295.8z M60.5,295.8c0,1.4,0.2,2.3,0.5,2.8s0.7,0.7,1.2,0.7s0.9-0.2,1.2-0.7
	s0.5-1.4,0.5-2.8s-0.2-2.4-0.5-2.8c-0.3-0.5-0.7-0.7-1.2-0.7s-0.9,0.2-1.2,0.6C60.7,293.4,60.5,294.3,60.5,295.8z M66.4,295.8
	c0-1,0.1-1.8,0.3-2.5c0.2-0.6,0.5-1.1,0.9-1.4s0.9-0.5,1.6-0.5c0.5,0,0.9,0.1,1.2,0.3c0.4,0.2,0.6,0.5,0.9,0.8
	c0.2,0.3,0.4,0.8,0.5,1.3s0.2,1.2,0.2,2c0,1-0.1,1.8-0.3,2.4c-0.2,0.6-0.5,1.1-0.9,1.4s-0.9,0.5-1.6,0.5c-0.8,0-1.5-0.3-2-0.9
	C66.7,298.5,66.4,297.4,66.4,295.8z M67.5,295.8c0,1.4,0.2,2.3,0.5,2.8c0.3,0.5,0.7,0.7,1.2,0.7s0.9-0.2,1.2-0.7
	c0.3-0.5,0.5-1.4,0.5-2.8s-0.2-2.4-0.5-2.8c-0.3-0.5-0.7-0.7-1.2-0.7s-0.9,0.2-1.2,0.6C67.7,293.4,67.5,294.3,67.5,295.8z"/>
<path class="st31" d="M37.9,242.5v-1c-0.5-0.1-0.9-0.2-1.3-0.4c-0.4-0.2-0.6-0.4-0.9-0.8c-0.2-0.4-0.4-0.9-0.4-1.4l1.1-0.2
	c0.1,0.6,0.2,1,0.4,1.2c0.3,0.4,0.7,0.6,1.1,0.6v-3.4c-0.4-0.1-0.9-0.3-1.3-0.5c-0.3-0.2-0.6-0.4-0.8-0.8c-0.2-0.3-0.3-0.7-0.3-1.1
	c0-0.8,0.3-1.4,0.8-1.8c0.4-0.3,0.9-0.5,1.6-0.6v-0.5h0.6v0.5c0.6,0.1,1.1,0.2,1.5,0.5c0.5,0.4,0.8,0.9,0.8,1.6l-1.1,0.2
	c-0.1-0.4-0.2-0.7-0.4-1c-0.2-0.3-0.5-0.4-0.8-0.4v3c0.5,0.1,0.9,0.2,1.1,0.3c0.3,0.1,0.6,0.3,0.8,0.5c0.2,0.2,0.4,0.5,0.5,0.8
	c0.1,0.3,0.2,0.6,0.2,0.9c0,0.7-0.2,1.3-0.7,1.8s-1.1,0.8-1.8,0.8v1.1L37.9,242.5L37.9,242.5z M37.9,233.2c-0.4,0.1-0.7,0.2-1,0.5
	c-0.2,0.3-0.3,0.6-0.3,0.9c0,0.4,0.1,0.7,0.3,0.9s0.5,0.4,1,0.6V233.2z M38.5,240.5c0.4-0.1,0.7-0.2,1-0.5s0.4-0.7,0.4-1.1
	c0-0.4-0.1-0.7-0.3-0.9c-0.2-0.2-0.6-0.4-1.1-0.6V240.5z M46.4,241.2h-1v-6.7c-0.3,0.2-0.6,0.5-1,0.7c-0.4,0.2-0.8,0.4-1.1,0.5v-1
	c0.6-0.3,1.1-0.6,1.5-1c0.4-0.4,0.8-0.8,1-1.2h0.7L46.4,241.2L46.4,241.2z M49.4,237c0-1,0.1-1.8,0.3-2.5c0.2-0.6,0.5-1.1,0.9-1.4
	c0.4-0.3,0.9-0.5,1.6-0.5c0.5,0,0.9,0.1,1.2,0.3c0.4,0.2,0.6,0.5,0.9,0.8c0.2,0.3,0.4,0.8,0.5,1.3s0.2,1.2,0.2,2
	c0,1-0.1,1.8-0.3,2.4c-0.2,0.6-0.5,1.1-0.9,1.4c-0.4,0.3-0.9,0.5-1.6,0.5c-0.8,0-1.5-0.3-2-0.9C49.7,239.8,49.4,238.6,49.4,237z
	 M50.5,237c0,1.4,0.2,2.3,0.5,2.8s0.7,0.7,1.2,0.7s0.9-0.2,1.2-0.7s0.5-1.4,0.5-2.8c0-1.4-0.2-2.4-0.5-2.8c-0.3-0.5-0.7-0.7-1.2-0.7
	s-0.9,0.2-1.2,0.6C50.7,234.6,50.5,235.6,50.5,237z M57,241.2V240h1.2v1.2H57z M59.4,237c0-1,0.1-1.8,0.3-2.5
	c0.2-0.6,0.5-1.1,0.9-1.4c0.4-0.3,0.9-0.5,1.6-0.5c0.5,0,0.9,0.1,1.2,0.3c0.4,0.2,0.6,0.5,0.9,0.8c0.2,0.3,0.4,0.8,0.5,1.3
	s0.2,1.2,0.2,2c0,1-0.1,1.8-0.3,2.4c-0.2,0.6-0.5,1.1-0.9,1.4c-0.4,0.3-0.9,0.5-1.6,0.5c-0.8,0-1.5-0.3-2-0.9
	C59.7,239.8,59.4,238.6,59.4,237z M60.5,237c0,1.4,0.2,2.3,0.5,2.8s0.7,0.7,1.2,0.7s0.9-0.2,1.2-0.7s0.5-1.4,0.5-2.8
	c0-1.4-0.2-2.4-0.5-2.8c-0.3-0.5-0.7-0.7-1.2-0.7s-0.9,0.2-1.2,0.6C60.7,234.6,60.5,235.6,60.5,237z M66.4,237c0-1,0.1-1.8,0.3-2.5
	c0.2-0.6,0.5-1.1,0.9-1.4c0.4-0.3,0.9-0.5,1.6-0.5c0.5,0,0.9,0.1,1.2,0.3c0.4,0.2,0.6,0.5,0.9,0.8c0.2,0.3,0.4,0.8,0.5,1.3
	s0.2,1.2,0.2,2c0,1-0.1,1.8-0.3,2.4c-0.2,0.6-0.5,1.1-0.9,1.4c-0.4,0.3-0.9,0.5-1.6,0.5c-0.8,0-1.5-0.3-2-0.9
	C66.7,239.8,66.4,238.6,66.4,237z M67.5,237c0,1.4,0.2,2.3,0.5,2.8c0.3,0.5,0.7,0.7,1.2,0.7s0.9-0.2,1.2-0.7
	c0.3-0.5,0.5-1.4,0.5-2.8c0-1.4-0.2-2.4-0.5-2.8c-0.3-0.5-0.7-0.7-1.2-0.7s-0.9,0.2-1.2,0.6C67.7,234.6,67.5,235.6,67.5,237z"/>
<path class="st31" d="M37.9,183.7v-1c-0.5-0.1-0.9-0.2-1.3-0.4c-0.4-0.2-0.6-0.4-0.9-0.8c-0.2-0.4-0.4-0.9-0.4-1.4l1.1-0.2
	c0.1,0.6,0.2,1,0.4,1.2c0.3,0.4,0.7,0.6,1.1,0.6v-3.4c-0.4-0.1-0.9-0.3-1.3-0.5c-0.3-0.2-0.6-0.4-0.8-0.8c-0.2-0.3-0.3-0.7-0.3-1.1
	c0-0.8,0.3-1.4,0.8-1.8c0.4-0.3,0.9-0.5,1.6-0.6V173h0.6v0.5c0.6,0.1,1.1,0.2,1.5,0.5c0.5,0.4,0.8,0.9,0.8,1.6l-1.1,0.2
	c-0.1-0.4-0.2-0.7-0.4-1c-0.2-0.3-0.5-0.4-0.8-0.4v3c0.5,0.1,0.9,0.2,1.1,0.3c0.3,0.1,0.6,0.3,0.8,0.5c0.2,0.2,0.4,0.5,0.5,0.8
	c0.1,0.3,0.2,0.6,0.2,0.9c0,0.7-0.2,1.3-0.7,1.8s-1.1,0.8-1.8,0.8v1.1L37.9,183.7L37.9,183.7z M37.9,174.5c-0.4,0.1-0.7,0.2-1,0.5
	c-0.2,0.3-0.3,0.6-0.3,0.9c0,0.4,0.1,0.7,0.3,0.9s0.5,0.4,1,0.6V174.5z M38.5,181.8c0.4-0.1,0.7-0.2,1-0.5s0.4-0.7,0.4-1.1
	c0-0.4-0.1-0.7-0.3-0.9c-0.2-0.2-0.6-0.4-1.1-0.6V181.8z M47.9,181.5v1h-5.7c0-0.2,0-0.5,0.1-0.7c0.1-0.4,0.4-0.8,0.7-1.1
	c0.3-0.4,0.8-0.8,1.4-1.3c0.9-0.8,1.6-1.4,1.9-1.8c0.3-0.4,0.5-0.9,0.5-1.3c0-0.4-0.2-0.8-0.5-1c-0.3-0.3-0.7-0.4-1.2-0.4
	s-0.9,0.2-1.2,0.5c-0.3,0.3-0.5,0.7-0.5,1.3l-1.1-0.1c0.1-0.8,0.3-1.4,0.8-1.8c0.5-0.4,1.1-0.6,2-0.6c0.9,0,1.5,0.2,2,0.7
	s0.7,1,0.7,1.7c0,0.3-0.1,0.7-0.2,1c-0.1,0.3-0.4,0.7-0.7,1c-0.3,0.4-0.9,0.9-1.6,1.5c-0.6,0.5-1,0.9-1.2,1.1
	c-0.2,0.2-0.3,0.4-0.4,0.6h4.2V181.5z M49.4,178.3c0-1,0.1-1.8,0.3-2.5c0.2-0.6,0.5-1.1,0.9-1.4c0.4-0.3,0.9-0.5,1.6-0.5
	c0.5,0,0.9,0.1,1.2,0.3c0.4,0.2,0.6,0.5,0.9,0.8c0.2,0.3,0.4,0.8,0.5,1.3s0.2,1.2,0.2,2c0,1-0.1,1.8-0.3,2.4
	c-0.2,0.6-0.5,1.1-0.9,1.4c-0.4,0.3-0.9,0.5-1.6,0.5c-0.8,0-1.5-0.3-2-0.9C49.7,181,49.4,179.9,49.4,178.3z M50.5,178.3
	c0,1.4,0.2,2.3,0.5,2.8s0.7,0.7,1.2,0.7s0.9-0.2,1.2-0.7s0.5-1.4,0.5-2.8c0-1.4-0.2-2.4-0.5-2.8c-0.3-0.5-0.7-0.7-1.2-0.7
	s-0.9,0.2-1.2,0.6C50.7,175.9,50.5,176.8,50.5,178.3z M57,182.5v-1.2h1.2v1.2H57z M59.4,178.3c0-1,0.1-1.8,0.3-2.5
	c0.2-0.6,0.5-1.1,0.9-1.4c0.4-0.3,0.9-0.5,1.6-0.5c0.5,0,0.9,0.1,1.2,0.3c0.4,0.2,0.6,0.5,0.9,0.8c0.2,0.3,0.4,0.8,0.5,1.3
	s0.2,1.2,0.2,2c0,1-0.1,1.8-0.3,2.4c-0.2,0.6-0.5,1.1-0.9,1.4c-0.4,0.3-0.9,0.5-1.6,0.5c-0.8,0-1.5-0.3-2-0.9
	C59.7,181,59.4,179.9,59.4,178.3z M60.5,178.3c0,1.4,0.2,2.3,0.5,2.8s0.7,0.7,1.2,0.7s0.9-0.2,1.2-0.7s0.5-1.4,0.5-2.8
	c0-1.4-0.2-2.4-0.5-2.8c-0.3-0.5-0.7-0.7-1.2-0.7s-0.9,0.2-1.2,0.6C60.7,175.9,60.5,176.8,60.5,178.3z M66.4,178.3
	c0-1,0.1-1.8,0.3-2.5c0.2-0.6,0.5-1.1,0.9-1.4c0.4-0.3,0.9-0.5,1.6-0.5c0.5,0,0.9,0.1,1.2,0.3c0.4,0.2,0.6,0.5,0.9,0.8
	c0.2,0.3,0.4,0.8,0.5,1.3s0.2,1.2,0.2,2c0,1-0.1,1.8-0.3,2.4c-0.2,0.6-0.5,1.1-0.9,1.4c-0.4,0.3-0.9,0.5-1.6,0.5
	c-0.8,0-1.5-0.3-2-0.9C66.7,181,66.4,179.9,66.4,178.3z M67.5,178.3c0,1.4,0.2,2.3,0.5,2.8c0.3,0.5,0.7,0.7,1.2,0.7s0.9-0.2,1.2-0.7
	c0.3-0.5,0.5-1.4,0.5-2.8c0-1.4-0.2-2.4-0.5-2.8c-0.3-0.5-0.7-0.7-1.2-0.7s-0.9,0.2-1.2,0.6C67.7,175.9,67.5,176.8,67.5,178.3z"/>
<path class="st31" d="M37.9,125v-1c-0.5-0.1-0.9-0.2-1.3-0.4c-0.4-0.2-0.6-0.4-0.9-0.8c-0.2-0.4-0.4-0.9-0.4-1.4l1.1-0.2
	c0.1,0.6,0.2,1,0.4,1.2c0.3,0.4,0.7,0.6,1.1,0.6v-3.4c-0.4-0.1-0.9-0.3-1.3-0.5c-0.3-0.2-0.6-0.4-0.8-0.8c-0.2-0.3-0.3-0.7-0.3-1.1
	c0-0.8,0.3-1.4,0.8-1.8c0.4-0.3,0.9-0.5,1.6-0.6v-0.5h0.6v0.5c0.6,0.1,1.1,0.2,1.5,0.5c0.5,0.4,0.8,0.9,0.8,1.6l-1.1,0.2
	c-0.1-0.4-0.2-0.7-0.4-1c-0.2-0.3-0.5-0.4-0.8-0.4v3c0.5,0.1,0.9,0.2,1.1,0.3c0.3,0.1,0.6,0.3,0.8,0.5c0.2,0.2,0.4,0.5,0.5,0.8
	c0.1,0.3,0.2,0.6,0.2,0.9c0,0.7-0.2,1.3-0.7,1.8s-1.1,0.8-1.8,0.8v1.1h-0.7V125z M37.9,115.8c-0.4,0.1-0.7,0.2-1,0.5
	c-0.2,0.3-0.3,0.6-0.3,0.9c0,0.4,0.1,0.7,0.3,0.9c0.2,0.2,0.5,0.4,1,0.6V115.8z M38.5,123c0.4-0.1,0.7-0.2,1-0.5s0.4-0.7,0.4-1.1
	s-0.1-0.7-0.3-0.9c-0.2-0.2-0.6-0.4-1.1-0.6V123z M42.4,121.5l1.1-0.1c0.1,0.6,0.3,1,0.6,1.3c0.3,0.3,0.6,0.4,1.1,0.4
	s0.9-0.2,1.3-0.5c0.4-0.3,0.5-0.8,0.5-1.3s-0.2-0.9-0.5-1.2c-0.3-0.3-0.7-0.5-1.2-0.5c-0.2,0-0.4,0-0.8,0.1l0.1-0.9
	c0.1,0,0.1,0,0.2,0c0.4,0,0.8-0.1,1.2-0.3c0.4-0.2,0.5-0.6,0.5-1.1c0-0.4-0.1-0.7-0.4-1s-0.6-0.4-1-0.4c-0.4,0-0.8,0.1-1,0.4
	c-0.3,0.3-0.4,0.6-0.5,1.2l-1.1-0.2c0.1-0.7,0.4-1.2,0.9-1.6s1-0.6,1.7-0.6c0.5,0,0.9,0.1,1.3,0.3c0.4,0.2,0.7,0.5,0.9,0.8
	c0.2,0.3,0.3,0.7,0.3,1.1s-0.1,0.7-0.3,1c-0.2,0.3-0.5,0.5-0.9,0.7c0.5,0.1,0.9,0.4,1.2,0.7c0.3,0.4,0.4,0.8,0.4,1.4
	c0,0.8-0.3,1.4-0.8,1.9s-1.2,0.8-2.1,0.8c-0.8,0-1.4-0.2-1.9-0.7C42.8,122.8,42.5,122.2,42.4,121.5z M49.4,119.5
	c0-1,0.1-1.8,0.3-2.5c0.2-0.6,0.5-1.1,0.9-1.4s0.9-0.5,1.6-0.5c0.5,0,0.9,0.1,1.2,0.3c0.4,0.2,0.6,0.5,0.9,0.8
	c0.2,0.3,0.4,0.8,0.5,1.3s0.2,1.2,0.2,2c0,1-0.1,1.8-0.3,2.4s-0.5,1.1-0.9,1.4s-0.9,0.5-1.6,0.5c-0.8,0-1.5-0.3-2-0.9
	C49.7,122.3,49.4,121.1,49.4,119.5z M50.5,119.5c0,1.4,0.2,2.3,0.5,2.8s0.7,0.7,1.2,0.7s0.9-0.2,1.2-0.7s0.5-1.4,0.5-2.8
	s-0.2-2.4-0.5-2.8c-0.3-0.5-0.7-0.7-1.2-0.7s-0.9,0.2-1.2,0.6C50.7,117.1,50.5,118.1,50.5,119.5z M57,123.8v-1.2h1.2v1.2H57z
	 M59.4,119.5c0-1,0.1-1.8,0.3-2.5c0.2-0.6,0.5-1.1,0.9-1.4s0.9-0.5,1.6-0.5c0.5,0,0.9,0.1,1.2,0.3c0.4,0.2,0.6,0.5,0.9,0.8
	c0.2,0.3,0.4,0.8,0.5,1.3s0.2,1.2,0.2,2c0,1-0.1,1.8-0.3,2.4c-0.2,0.6-0.5,1.1-0.9,1.4s-0.9,0.5-1.6,0.5c-0.8,0-1.5-0.3-2-0.9
	C59.7,122.3,59.4,121.1,59.4,119.5z M60.5,119.5c0,1.4,0.2,2.3,0.5,2.8s0.7,0.7,1.2,0.7s0.9-0.2,1.2-0.7s0.5-1.4,0.5-2.8
	s-0.2-2.4-0.5-2.8c-0.3-0.5-0.7-0.7-1.2-0.7s-0.9,0.2-1.2,0.6C60.7,117.1,60.5,118.1,60.5,119.5z M66.4,119.5c0-1,0.1-1.8,0.3-2.5
	c0.2-0.6,0.5-1.1,0.9-1.4s0.9-0.5,1.6-0.5c0.5,0,0.9,0.1,1.2,0.3c0.4,0.2,0.6,0.5,0.9,0.8c0.2,0.3,0.4,0.8,0.5,1.3s0.2,1.2,0.2,2
	c0,1-0.1,1.8-0.3,2.4c-0.2,0.6-0.5,1.1-0.9,1.4s-0.9,0.5-1.6,0.5c-0.8,0-1.5-0.3-2-0.9C66.7,122.3,66.4,121.1,66.4,119.5z
	 M67.5,119.5c0,1.4,0.2,2.3,0.5,2.8c0.3,0.5,0.7,0.7,1.2,0.7s0.9-0.2,1.2-0.7c0.3-0.5,0.5-1.4,0.5-2.8s-0.2-2.4-0.5-2.8
	c-0.3-0.5-0.7-0.7-1.2-0.7s-0.9,0.2-1.2,0.6C67.7,117.1,67.5,118.1,67.5,119.5z"/>
<path class="st31" d="M37.9,66.2v-1c-0.5-0.1-0.9-0.2-1.3-0.4c-0.4-0.2-0.6-0.4-0.9-0.8c-0.2-0.4-0.4-0.9-0.4-1.4l1.1-0.2
	c0.1,0.6,0.2,1,0.4,1.2c0.3,0.4,0.7,0.6,1.1,0.6v-3.4c-0.4-0.1-0.9-0.3-1.3-0.5c-0.3-0.2-0.6-0.4-0.8-0.8c-0.2-0.3-0.3-0.7-0.3-1.1
	c0-0.8,0.3-1.4,0.8-1.8c0.4-0.3,0.9-0.5,1.6-0.6v-0.5h0.6V56c0.6,0.1,1.1,0.2,1.5,0.5c0.5,0.4,0.8,0.9,0.8,1.6l-1.1,0.2
	c-0.1-0.4-0.2-0.7-0.4-1c-0.2-0.3-0.4-0.2-0.8-0.3v3c0.5,0.1,0.9,0.2,1.1,0.3c0.3,0.1,0.6,0.3,0.8,0.5c0.2,0.2,0.4,0.5,0.5,0.8
	c0.1,0.3,0.2,0.6,0.2,0.9c0,0.7-0.2,1.3-0.7,1.8c-0.5,0.5-1.1,0.8-1.8,0.8v1.1C38.6,66.2,37.9,66.2,37.9,66.2z M37.9,57
	c-0.4,0.1-0.7,0.2-1,0.5c-0.2,0.3-0.3,0.6-0.3,0.9c0,0.4,0.1,0.7,0.3,0.9s0.5,0.4,1,0.6V57z M38.5,64.3c0.4-0.1,0.7-0.2,1-0.5
	c0.3-0.3,0.4-0.7,0.4-1.1c0-0.4-0.1-0.7-0.3-0.9c-0.2-0.2-0.6-0.4-1.1-0.6V64.3z M45.8,65v-2.1h-3.7v-1l3.9-5.6h0.9V62h1.2v1h-1.2v2
	H45.8z M45.8,62v-3.9L43.1,62H45.8z M49.4,60.8c0-1,0.1-1.8,0.3-2.5c0.2-0.6,0.5-1.1,0.9-1.4c0.4-0.3,0.9-0.5,1.6-0.5
	c0.5,0,0.9,0.1,1.2,0.3c0.4,0.2,0.6,0.5,0.9,0.8c0.2,0.3,0.4,0.8,0.5,1.3s0.2,1.2,0.2,2c0,1-0.1,1.8-0.3,2.4
	c-0.2,0.6-0.5,1.1-0.9,1.4s-0.9,0.5-1.6,0.5c-0.8,0-1.5-0.3-2-0.9C49.7,63.5,49.4,62.4,49.4,60.8z M50.5,60.8c0,1.4,0.2,2.3,0.5,2.8
	s0.7,0.7,1.2,0.7s0.9-0.2,1.2-0.7c0.3-0.5,0.5-1.4,0.5-2.8c0-1.4-0.2-2.4-0.5-2.8c-0.3-0.5-0.7-0.7-1.2-0.7s-0.9,0.2-1.2,0.6
	C50.7,58.4,50.5,59.3,50.5,60.8z M57,65v-1.2h1.2V65H57z M59.4,60.8c0-1,0.1-1.8,0.3-2.5c0.2-0.6,0.5-1.1,0.9-1.4
	c0.4-0.3,0.9-0.5,1.6-0.5c0.5,0,0.9,0.1,1.2,0.3c0.4,0.2,0.6,0.5,0.9,0.8c0.2,0.3,0.4,0.8,0.5,1.3s0.2,1.2,0.2,2
	c0,1-0.1,1.8-0.3,2.4c-0.2,0.6-0.5,1.1-0.9,1.4s-0.9,0.5-1.6,0.5c-0.8,0-1.5-0.3-2-0.9C59.7,63.5,59.4,62.4,59.4,60.8z M60.5,60.8
	c0,1.4,0.2,2.3,0.5,2.8s0.7,0.7,1.2,0.7s0.9-0.2,1.2-0.7c0.3-0.5,0.5-1.4,0.5-2.8c0-1.4-0.2-2.4-0.5-2.8c-0.3-0.5-0.7-0.7-1.2-0.7
	s-0.9,0.2-1.2,0.6C60.7,58.4,60.5,59.3,60.5,60.8z M66.4,60.8c0-1,0.1-1.8,0.3-2.5c0.2-0.6,0.5-1.1,0.9-1.4c0.4-0.3,0.9-0.5,1.6-0.5
	c0.5,0,0.9,0.1,1.2,0.3c0.4,0.2,0.6,0.5,0.9,0.8c0.2,0.3,0.4,0.8,0.5,1.3s0.2,1.2,0.2,2c0,1-0.1,1.8-0.3,2.4
	c-0.2,0.6-0.5,1.1-0.9,1.4s-0.9,0.5-1.6,0.5c-0.8,0-1.5-0.3-2-0.9C66.7,63.5,66.4,62.4,66.4,60.8z M67.5,60.8c0,1.4,0.2,2.3,0.5,2.8
	c0.3,0.5,0.7,0.7,1.2,0.7s0.9-0.2,1.2-0.7c0.3-0.5,0.5-1.4,0.5-2.8c0-1.4-0.2-2.4-0.5-2.8c-0.3-0.5-0.7-0.7-1.2-0.7
	s-0.9,0.2-1.2,0.6C67.7,58.4,67.5,59.3,67.5,60.8z"/>
<path class="st31" d="M118.7,312v1H113c0-0.2,0-0.5,0.1-0.7c0.1-0.4,0.4-0.8,0.7-1.1c0.3-0.4,0.8-0.8,1.4-1.3
	c0.9-0.8,1.6-1.4,1.9-1.8s0.5-0.9,0.5-1.3s-0.2-0.8-0.5-1c-0.3-0.3-0.7-0.4-1.2-0.4s-0.9,0.2-1.2,0.5c-0.3,0.3-0.5,0.7-0.5,1.3
	l-1.1-0.1c0.1-0.8,0.3-1.4,0.8-1.8s1.1-0.6,2-0.6c0.8,0,1.5,0.2,2,0.7s0.7,1,0.7,1.7c0,0.3-0.1,0.7-0.2,1s-0.4,0.7-0.7,1
	c-0.3,0.4-0.9,0.9-1.6,1.5c-0.6,0.5-1,0.9-1.2,1.1s-0.3,0.4-0.4,0.6h4.2V312z M120.2,308.8c0-1,0.1-1.8,0.3-2.5
	c0.2-0.6,0.5-1.1,0.9-1.4s0.9-0.5,1.6-0.5c0.5,0,0.9,0.1,1.2,0.3c0.4,0.2,0.6,0.5,0.9,0.8c0.2,0.3,0.4,0.8,0.5,1.3s0.2,1.2,0.2,2
	c0,1-0.1,1.8-0.3,2.4c-0.2,0.6-0.5,1.1-0.9,1.4s-0.9,0.5-1.6,0.5c-0.8,0-1.5-0.3-2-0.9C120.4,311.5,120.2,310.4,120.2,308.8z
	 M121.2,308.8c0,1.4,0.2,2.3,0.5,2.8s0.7,0.7,1.2,0.7s0.9-0.2,1.2-0.7c0.3-0.5,0.5-1.4,0.5-2.8s-0.2-2.4-0.5-2.8
	c-0.3-0.5-0.7-0.7-1.2-0.7s-0.9,0.2-1.2,0.6C121.4,306.4,121.2,307.3,121.2,308.8z M131.1,313h-1v-6.7c-0.3,0.2-0.6,0.5-1,0.7
	c-0.4,0.2-0.8,0.4-1.1,0.5v-1c0.6-0.3,1.1-0.6,1.5-1c0.4-0.4,0.8-0.8,1-1.2h0.7L131.1,313L131.1,313z M134.2,305.5v-1h5.6v0.8
	c-0.5,0.6-1.1,1.4-1.6,2.3c-0.5,1-0.9,1.9-1.2,3c-0.2,0.7-0.4,1.5-0.4,2.4h-1.1c0-0.7,0.1-1.5,0.4-2.5s0.6-1.9,1.1-2.8
	s1-1.6,1.5-2.2L134.2,305.5L134.2,305.5z"/>
<path class="st31" d="M189.5,312v1h-5.7c0-0.2,0-0.5,0.1-0.7c0.1-0.4,0.4-0.8,0.7-1.1c0.3-0.4,0.8-0.8,1.4-1.3
	c0.9-0.8,1.6-1.4,1.9-1.8c0.3-0.4,0.5-0.9,0.5-1.3s-0.2-0.8-0.5-1c-0.3-0.3-0.7-0.4-1.2-0.4s-0.9,0.2-1.2,0.5s-0.5,0.7-0.5,1.3
	l-1.1-0.1c0.1-0.8,0.3-1.4,0.8-1.8s1.1-0.6,2-0.6c0.8,0,1.5,0.2,2,0.7s0.7,1,0.7,1.7c0,0.3-0.1,0.7-0.2,1c-0.1,0.3-0.4,0.7-0.7,1
	c-0.3,0.4-0.9,0.9-1.6,1.5c-0.6,0.5-1,0.9-1.2,1.1s-0.3,0.4-0.4,0.6h4.2V312z M190.9,308.8c0-1,0.1-1.8,0.3-2.5
	c0.2-0.6,0.5-1.1,0.9-1.4s0.9-0.5,1.6-0.5c0.5,0,0.9,0.1,1.2,0.3c0.4,0.2,0.6,0.5,0.9,0.8c0.2,0.3,0.4,0.8,0.5,1.3s0.2,1.2,0.2,2
	c0,1-0.1,1.8-0.3,2.4s-0.5,1.1-0.9,1.4s-0.9,0.5-1.6,0.5c-0.8,0-1.5-0.3-2-0.9C191.2,311.5,190.9,310.4,190.9,308.8z M192,308.8
	c0,1.4,0.2,2.3,0.5,2.8s0.7,0.7,1.2,0.7s0.9-0.2,1.2-0.7s0.5-1.4,0.5-2.8s-0.2-2.4-0.5-2.8c-0.3-0.5-0.7-0.7-1.2-0.7
	s-0.9,0.2-1.2,0.6C192.2,306.4,192,307.3,192,308.8z M201.9,313h-1v-6.7c-0.3,0.2-0.6,0.5-1,0.7s-0.8,0.4-1.1,0.5v-1
	c0.6-0.3,1.1-0.6,1.5-1s0.8-0.8,1-1.2h0.7L201.9,313L201.9,313z M206.5,308.3c-0.4-0.2-0.8-0.4-1-0.7c-0.2-0.3-0.3-0.7-0.3-1.1
	c0-0.6,0.2-1.2,0.7-1.6s1.1-0.6,1.8-0.6c0.8,0,1.4,0.2,1.8,0.7c0.5,0.4,0.7,1,0.7,1.6c0,0.4-0.1,0.7-0.3,1s-0.5,0.5-1,0.7
	c0.5,0.2,0.9,0.4,1.2,0.8s0.4,0.8,0.4,1.4c0,0.7-0.3,1.3-0.8,1.8s-1.2,0.8-2,0.8s-1.5-0.2-2-0.8c-0.5-0.5-0.8-1.1-0.8-1.9
	c0-0.6,0.1-1,0.4-1.4C205.6,308.7,206,308.5,206.5,308.3z M206.3,306.5c0,0.4,0.1,0.7,0.4,1c0.3,0.3,0.6,0.4,1,0.4s0.7-0.1,1-0.4
	s0.4-0.6,0.4-1s-0.1-0.7-0.4-1c-0.3-0.3-0.6-0.4-1-0.4s-0.7,0.1-1,0.4C206.4,305.9,206.3,306.2,206.3,306.5z M206,310.5
	c0,0.3,0.1,0.6,0.2,0.9c0.1,0.3,0.4,0.5,0.6,0.7s0.6,0.2,0.9,0.2c0.5,0,0.9-0.2,1.2-0.5s0.5-0.7,0.5-1.2s-0.2-0.9-0.5-1.3
	c-0.3-0.3-0.8-0.5-1.3-0.5s-0.9,0.2-1.2,0.5S206,310,206,310.5z"/>
<path class="st31" d="M260.2,312v1h-5.7c0-0.2,0-0.5,0.1-0.7c0.1-0.4,0.4-0.8,0.7-1.1c0.3-0.4,0.8-0.8,1.4-1.3
	c0.9-0.8,1.6-1.4,1.9-1.8s0.5-0.9,0.5-1.3s-0.2-0.8-0.5-1c-0.3-0.3-0.7-0.4-1.2-0.4s-0.9,0.2-1.2,0.5c-0.3,0.3-0.5,0.7-0.5,1.3
	l-1.1-0.1c0.1-0.8,0.3-1.4,0.8-1.8s1.1-0.6,2-0.6c0.8,0,1.5,0.2,2,0.7s0.7,1,0.7,1.7c0,0.3-0.1,0.7-0.2,1s-0.4,0.7-0.7,1
	c-0.3,0.4-0.9,0.9-1.6,1.5c-0.6,0.5-1,0.9-1.2,1.1c-0.2,0.2-0.3,0.4-0.4,0.6h4.2V312z M261.7,308.8c0-1,0.1-1.8,0.3-2.5
	c0.2-0.6,0.5-1.1,0.9-1.4s0.9-0.5,1.6-0.5c0.5,0,0.9,0.1,1.2,0.3c0.4,0.2,0.6,0.5,0.9,0.8c0.2,0.3,0.4,0.8,0.5,1.3s0.2,1.2,0.2,2
	c0,1-0.1,1.8-0.3,2.4c-0.2,0.6-0.5,1.1-0.9,1.4s-0.9,0.5-1.6,0.5c-0.8,0-1.5-0.3-2-0.9C261.9,311.5,261.7,310.4,261.7,308.8z
	 M262.7,308.8c0,1.4,0.2,2.3,0.5,2.8c0.3,0.5,0.7,0.7,1.2,0.7s0.9-0.2,1.2-0.7c0.3-0.5,0.5-1.4,0.5-2.8s-0.2-2.4-0.5-2.8
	c-0.3-0.5-0.7-0.7-1.2-0.7s-0.9,0.2-1.2,0.6C262.9,306.4,262.7,307.3,262.7,308.8z M272.6,313h-1v-6.7c-0.3,0.2-0.6,0.5-1,0.7
	s-0.8,0.4-1.1,0.5v-1c0.6-0.3,1.1-0.6,1.5-1s0.8-0.8,1-1.2h0.7L272.6,313L272.6,313z M275.8,311l1-0.1c0.1,0.5,0.2,0.8,0.5,1
	c0.2,0.2,0.6,0.3,0.9,0.3s0.6-0.1,0.8-0.2c0.2-0.2,0.5-0.4,0.6-0.6c0.2-0.2,0.3-0.6,0.4-1s0.2-0.9,0.2-1.3c0-0.1,0-0.1,0-0.2
	c-0.2,0.3-0.5,0.6-0.9,0.8c-0.4,0.2-0.8,0.3-1.2,0.3c-0.7,0-1.3-0.3-1.8-0.8s-0.7-1.2-0.7-2c0-0.9,0.3-1.6,0.8-2.1s1.2-0.8,1.9-0.8
	c0.6,0,1.1,0.2,1.5,0.5c0.5,0.3,0.8,0.7,1.1,1.3c0.2,0.6,0.4,1.4,0.4,2.4c0,1.1-0.1,2-0.4,2.6c-0.2,0.6-0.6,1.1-1.1,1.5
	c-0.5,0.3-1,0.5-1.6,0.5c-0.7,0-1.2-0.2-1.7-0.5C276.1,312.2,275.9,311.7,275.8,311z M280.1,307.2c0-0.6-0.2-1.1-0.5-1.4
	c-0.3-0.4-0.7-0.5-1.2-0.5s-0.9,0.2-1.2,0.6c-0.3,0.4-0.5,0.9-0.5,1.5c0,0.5,0.2,1,0.5,1.3s0.7,0.5,1.2,0.5s0.9-0.2,1.2-0.5
	S280.1,307.8,280.1,307.2z"/>
<path class="st31" d="M330.9,312v1h-5.7c0-0.2,0-0.5,0.1-0.7c0.1-0.4,0.4-0.8,0.7-1.1c0.3-0.4,0.8-0.8,1.4-1.3
	c0.9-0.8,1.6-1.4,1.9-1.8s0.5-0.9,0.5-1.3s-0.2-0.8-0.5-1c-0.3-0.3-0.7-0.4-1.2-0.4s-0.9,0.2-1.2,0.5s-0.5,0.7-0.5,1.3l-1.1-0.1
	c0.1-0.8,0.3-1.4,0.8-1.8s1.1-0.6,2-0.6s1.5,0.2,2,0.7s0.7,1,0.7,1.7c0,0.3-0.1,0.7-0.2,1s-0.4,0.7-0.7,1c-0.3,0.4-0.9,0.9-1.6,1.5
	c-0.6,0.5-1,0.9-1.2,1.1s-0.3,0.4-0.4,0.6h4.2V312z M332.4,308.8c0-1,0.1-1.8,0.3-2.5c0.2-0.6,0.5-1.1,0.9-1.4s0.9-0.5,1.6-0.5
	c0.5,0,0.9,0.1,1.2,0.3c0.4,0.2,0.6,0.5,0.9,0.8c0.2,0.3,0.4,0.8,0.5,1.3s0.2,1.2,0.2,2c0,1-0.1,1.8-0.3,2.4
	c-0.2,0.6-0.5,1.1-0.9,1.4s-0.9,0.5-1.6,0.5c-0.8,0-1.5-0.3-2-0.9C332.7,311.5,332.4,310.4,332.4,308.8z M333.5,308.8
	c0,1.4,0.2,2.3,0.5,2.8s0.7,0.7,1.2,0.7s0.9-0.2,1.2-0.7c0.3-0.5,0.5-1.4,0.5-2.8s-0.2-2.4-0.5-2.8c-0.3-0.5-0.7-0.7-1.2-0.7
	s-0.9,0.2-1.2,0.6C333.7,306.4,333.5,307.3,333.5,308.8z M344.9,312v1h-5.7c0-0.2,0-0.5,0.1-0.7c0.1-0.4,0.4-0.8,0.7-1.1
	c0.3-0.4,0.8-0.8,1.4-1.3c0.9-0.8,1.6-1.4,1.9-1.8s0.5-0.9,0.5-1.3s-0.2-0.8-0.5-1c-0.3-0.3-0.7-0.4-1.2-0.4s-0.9,0.2-1.2,0.5
	s-0.5,0.7-0.5,1.3l-1.1-0.1c0.1-0.8,0.3-1.4,0.8-1.8s1.1-0.6,2-0.6s1.5,0.2,2,0.7s0.7,1,0.7,1.7c0,0.3-0.1,0.7-0.2,1s-0.4,0.7-0.7,1
	c-0.3,0.4-0.9,0.9-1.6,1.5c-0.6,0.5-1,0.9-1.2,1.1s-0.3,0.4-0.4,0.6h4.2V312z M351.9,312v1h-5.7c0-0.2,0-0.5,0.1-0.7
	c0.1-0.4,0.4-0.8,0.7-1.1c0.3-0.4,0.8-0.8,1.4-1.3c0.9-0.8,1.6-1.4,1.9-1.8s0.5-0.9,0.5-1.3s-0.2-0.8-0.5-1
	c-0.3-0.3-0.7-0.4-1.2-0.4s-0.9,0.2-1.2,0.5s-0.5,0.7-0.5,1.3l-1.1-0.1c0.1-0.8,0.3-1.4,0.8-1.8s1.1-0.6,2-0.6s1.5,0.2,2,0.7
	s0.7,1,0.7,1.7c0,0.3-0.1,0.7-0.2,1s-0.4,0.7-0.7,1c-0.3,0.4-0.9,0.9-1.6,1.5c-0.6,0.5-1,0.9-1.2,1.1s-0.3,0.4-0.4,0.6h4.2V312z"/>
<path class="st31" d="M401.7,312v1H396c0-0.2,0-0.5,0.1-0.7c0.1-0.4,0.4-0.8,0.7-1.1c0.3-0.4,0.8-0.8,1.4-1.3
	c0.9-0.8,1.6-1.4,1.9-1.8s0.5-0.9,0.5-1.3s-0.2-0.8-0.5-1c-0.3-0.3-0.7-0.4-1.2-0.4s-0.9,0.2-1.2,0.5s-0.5,0.7-0.5,1.3l-1.1-0.1
	c0.1-0.8,0.3-1.4,0.8-1.8s1.1-0.6,2-0.6s1.5,0.2,2,0.7s0.7,1,0.7,1.7c0,0.3-0.1,0.7-0.2,1s-0.4,0.7-0.7,1c-0.3,0.4-0.9,0.9-1.6,1.5
	c-0.6,0.5-1,0.9-1.2,1.1s-0.3,0.4-0.4,0.6h4.2V312z M403.1,308.8c0-1,0.1-1.8,0.3-2.5c0.2-0.6,0.5-1.1,0.9-1.4s0.9-0.5,1.6-0.5
	c0.5,0,0.9,0.1,1.2,0.3c0.4,0.2,0.6,0.5,0.9,0.8c0.2,0.3,0.4,0.8,0.5,1.3s0.2,1.2,0.2,2c0,1-0.1,1.8-0.3,2.4
	c-0.2,0.6-0.5,1.1-0.9,1.4s-0.9,0.5-1.6,0.5c-0.8,0-1.5-0.3-2-0.9C403.4,311.5,403.1,310.4,403.1,308.8z M404.2,308.8
	c0,1.4,0.2,2.3,0.5,2.8s0.7,0.7,1.2,0.7s0.9-0.2,1.2-0.7c0.3-0.5,0.5-1.4,0.5-2.8s-0.2-2.4-0.5-2.8c-0.3-0.5-0.7-0.7-1.2-0.7
	s-0.9,0.2-1.2,0.6C404.4,306.4,404.2,307.3,404.2,308.8z M415.7,312v1H410c0-0.2,0-0.5,0.1-0.7c0.1-0.4,0.4-0.8,0.7-1.1
	c0.3-0.4,0.8-0.8,1.4-1.3c0.9-0.8,1.6-1.4,1.9-1.8s0.5-0.9,0.5-1.3s-0.2-0.8-0.5-1c-0.3-0.3-0.7-0.4-1.2-0.4s-0.9,0.2-1.2,0.5
	s-0.5,0.7-0.5,1.3l-1.1-0.1c0.1-0.8,0.3-1.4,0.8-1.8s1.1-0.6,2-0.6s1.5,0.2,2,0.7s0.7,1,0.7,1.7c0,0.3-0.1,0.7-0.2,1s-0.4,0.7-0.7,1
	c-0.3,0.4-0.9,0.9-1.6,1.5c-0.6,0.5-1,0.9-1.2,1.1s-0.3,0.4-0.4,0.6h4.2V312z M417.1,310.7l1.1-0.1c0.1,0.6,0.3,1,0.6,1.3
	c0.3,0.3,0.6,0.4,1.1,0.4s0.9-0.2,1.3-0.5s0.5-0.8,0.5-1.3s-0.2-0.9-0.5-1.2c-0.3-0.3-0.7-0.5-1.2-0.5c-0.2,0-0.4,0-0.8,0.1l0.1-0.9
	c0.1,0,0.1,0,0.2,0c0.4,0,0.8-0.1,1.2-0.3c0.4-0.2,0.5-0.6,0.5-1.1c0-0.4-0.1-0.7-0.4-1s-0.6-0.4-1-0.4s-0.8,0.1-1,0.4
	c-0.3,0.3-0.4,0.6-0.5,1.2l-1.1-0.2c0.1-0.7,0.4-1.2,0.9-1.6s1-0.6,1.7-0.6c0.5,0,0.9,0.1,1.3,0.3c0.4,0.2,0.7,0.5,0.9,0.8
	s0.3,0.7,0.3,1.1s-0.1,0.7-0.3,1c-0.2,0.3-0.5,0.5-0.9,0.7c0.5,0.1,0.9,0.4,1.2,0.7c0.3,0.4,0.4,0.8,0.4,1.4c0,0.8-0.3,1.4-0.8,1.9
	s-1.2,0.8-2.1,0.8c-0.8,0-1.4-0.2-1.9-0.7C417.5,312,417.2,311.4,417.1,310.7z"/>
<path class="st31" d="M472.4,312v1h-5.7c0-0.2,0-0.5,0.1-0.7c0.1-0.4,0.4-0.8,0.7-1.1c0.3-0.4,0.8-0.8,1.4-1.3
	c0.9-0.8,1.6-1.4,1.9-1.8s0.5-0.9,0.5-1.3s-0.2-0.8-0.5-1c-0.3-0.3-0.7-0.4-1.2-0.4s-0.9,0.2-1.2,0.5c-0.3,0.3-0.5,0.7-0.5,1.3
	l-1.1-0.1c0.1-0.8,0.3-1.4,0.8-1.8s1.1-0.6,2-0.6c0.8,0,1.5,0.2,2,0.7s0.7,1,0.7,1.7c0,0.3-0.1,0.7-0.2,1s-0.4,0.7-0.7,1
	c-0.3,0.4-0.9,0.9-1.6,1.5c-0.6,0.5-1,0.9-1.2,1.1s-0.3,0.4-0.4,0.6h4.2V312z M473.9,308.8c0-1,0.1-1.8,0.3-2.5
	c0.2-0.6,0.5-1.1,0.9-1.4s0.9-0.5,1.6-0.5c0.5,0,0.9,0.1,1.2,0.3c0.4,0.2,0.6,0.5,0.9,0.8c0.2,0.3,0.4,0.8,0.5,1.3s0.2,1.2,0.2,2
	c0,1-0.1,1.8-0.3,2.4c-0.2,0.6-0.5,1.1-0.9,1.4s-0.9,0.5-1.6,0.5c-0.8,0-1.5-0.3-2-0.9C474.2,311.5,473.9,310.4,473.9,308.8z
	 M475,308.8c0,1.4,0.2,2.3,0.5,2.8s0.7,0.7,1.2,0.7s0.9-0.2,1.2-0.7c0.3-0.5,0.5-1.4,0.5-2.8s-0.2-2.4-0.5-2.8
	c-0.3-0.5-0.7-0.7-1.2-0.7s-0.9,0.2-1.2,0.6C475.2,306.4,475,307.3,475,308.8z M486.4,312v1h-5.7c0-0.2,0-0.5,0.1-0.7
	c0.1-0.4,0.4-0.8,0.7-1.1c0.3-0.4,0.8-0.8,1.4-1.3c0.9-0.8,1.6-1.4,1.9-1.8s0.5-0.9,0.5-1.3s-0.2-0.8-0.5-1
	c-0.3-0.3-0.7-0.4-1.2-0.4s-0.9,0.2-1.2,0.5c-0.3,0.3-0.5,0.7-0.5,1.3l-1.1-0.1c0.1-0.8,0.3-1.4,0.8-1.8s1.1-0.6,2-0.6
	c0.8,0,1.5,0.2,2,0.7s0.7,1,0.7,1.7c0,0.3-0.1,0.7-0.2,1s-0.4,0.7-0.7,1c-0.3,0.4-0.9,0.9-1.6,1.5c-0.6,0.5-1,0.9-1.2,1.1
	s-0.3,0.4-0.4,0.6h4.2V312z M491.3,313v-2.1h-3.7v-1l3.9-5.6h0.9v5.6h1.2v1h-1.2v2.1H491.3z M491.3,310v-3.9l-2.7,3.9H491.3z"/>
<path class="st31" d="M543.2,312v1h-5.7c0-0.2,0-0.5,0.1-0.7c0.1-0.4,0.4-0.8,0.7-1.1c0.3-0.4,0.8-0.8,1.4-1.3
	c0.9-0.8,1.6-1.4,1.9-1.8c0.3-0.4,0.5-0.9,0.5-1.3s-0.2-0.8-0.5-1c-0.3-0.3-0.7-0.4-1.2-0.4s-0.9,0.2-1.2,0.5s-0.5,0.7-0.5,1.3
	l-1.1-0.1c0.1-0.8,0.3-1.4,0.8-1.8s1.1-0.6,2-0.6s1.5,0.2,2,0.7s0.7,1,0.7,1.7c0,0.3-0.1,0.7-0.2,1c-0.1,0.3-0.4,0.7-0.7,1
	c-0.3,0.4-0.9,0.9-1.6,1.5c-0.6,0.5-1,0.9-1.2,1.1s-0.3,0.4-0.4,0.6h4.2V312z M544.6,308.8c0-1,0.1-1.8,0.3-2.5
	c0.2-0.6,0.5-1.1,0.9-1.4s0.9-0.5,1.6-0.5c0.5,0,0.9,0.1,1.2,0.3c0.4,0.2,0.6,0.5,0.9,0.8c0.2,0.3,0.4,0.8,0.5,1.3s0.2,1.2,0.2,2
	c0,1-0.1,1.8-0.3,2.4s-0.5,1.1-0.9,1.4s-0.9,0.5-1.6,0.5c-0.8,0-1.5-0.3-2-0.9C544.9,311.5,544.6,310.4,544.6,308.8z M545.7,308.8
	c0,1.4,0.2,2.3,0.5,2.8s0.7,0.7,1.2,0.7s0.9-0.2,1.2-0.7s0.5-1.4,0.5-2.8s-0.2-2.4-0.5-2.8c-0.3-0.5-0.7-0.7-1.2-0.7
	s-0.9,0.2-1.2,0.6C545.9,306.4,545.7,307.3,545.7,308.8z M557.2,312v1h-5.7c0-0.2,0-0.5,0.1-0.7c0.1-0.4,0.4-0.8,0.7-1.1
	c0.3-0.4,0.8-0.8,1.4-1.3c0.9-0.8,1.6-1.4,1.9-1.8c0.3-0.4,0.5-0.9,0.5-1.3s-0.2-0.8-0.5-1c-0.3-0.3-0.7-0.4-1.2-0.4
	s-0.9,0.2-1.2,0.5s-0.5,0.7-0.5,1.3l-1.1-0.1c0.1-0.8,0.3-1.4,0.8-1.8s1.1-0.6,2-0.6s1.5,0.2,2,0.7s0.7,1,0.7,1.7
	c0,0.3-0.1,0.7-0.2,1c-0.1,0.3-0.4,0.7-0.7,1c-0.3,0.4-0.9,0.9-1.6,1.5c-0.6,0.5-1,0.9-1.2,1.1s-0.3,0.4-0.4,0.6h4.2V312z
	 M558.6,310.8l1.1-0.1c0.1,0.5,0.3,0.9,0.6,1.2c0.3,0.3,0.7,0.4,1.1,0.4c0.5,0,0.9-0.2,1.3-0.6s0.5-0.9,0.5-1.5s-0.2-1.1-0.5-1.4
	c-0.3-0.4-0.8-0.5-1.3-0.5c-0.3,0-0.6,0.1-0.9,0.2c-0.3,0.2-0.5,0.4-0.6,0.6l-1-0.1l0.8-4.4h4.3v1h-3.4l-0.5,2.3
	c0.5-0.4,1-0.5,1.6-0.5c0.8,0,1.4,0.3,1.9,0.8s0.8,1.2,0.8,2s-0.2,1.4-0.7,2c-0.6,0.7-1.3,1-2.2,1c-0.8,0-1.4-0.2-1.9-0.7
	C559,312,558.7,311.5,558.6,310.8z"/>
<path class="st32" d="M204.9,330c0-0.6,0.4-1,1-1h10c0.6,0,1,0.4,1,1v10c0,0.6-0.4,1-1,1h-10c-0.6,0-1-0.4-1-1V330z"/>
<path class="st31" d="M225.8,339v-8.6h3c0.7,0,1.2,0,1.5,0.1c0.5,0.1,0.9,0.3,1.2,0.6c0.5,0.4,0.8,0.9,1,1.5s0.3,1.3,0.3,2
	s-0.1,1.2-0.2,1.7c-0.1,0.5-0.3,0.9-0.6,1.2s-0.5,0.6-0.8,0.8c-0.3,0.2-0.6,0.3-1,0.4s-0.9,0.1-1.4,0.1h-3V339z M227,338h1.8
	c0.6,0,1-0.1,1.3-0.2s0.6-0.3,0.8-0.5c0.3-0.3,0.5-0.6,0.6-1.1c0.2-0.5,0.2-1,0.2-1.7c0-0.9-0.2-1.6-0.5-2.1s-0.6-0.8-1.1-1
	c-0.3-0.1-0.8-0.2-1.5-0.2h-1.8v6.8H227z M234.3,335.9c0-1.2,0.3-2,1-2.6c0.5-0.5,1.2-0.7,2-0.7c0.9,0,1.6,0.3,2.1,0.8
	c0.6,0.6,0.8,1.3,0.8,2.3c0,0.8-0.1,1.4-0.4,1.9s-0.6,0.8-1.1,1.1c-0.5,0.2-1,0.4-1.5,0.4c-0.9,0-1.6-0.3-2.1-0.8
	C234.6,337.8,234.3,336.9,234.3,335.9z M235.4,335.9c0,0.8,0.2,1.4,0.5,1.8c0.4,0.4,0.8,0.6,1.3,0.6s1-0.2,1.3-0.6s0.5-1,0.5-1.8
	s-0.2-1.4-0.5-1.8s-0.8-0.6-1.3-0.6s-1,0.2-1.3,0.6S235.4,335.1,235.4,335.9z M241.7,339v-6.2h0.9v0.9c0.2-0.3,0.5-0.6,0.8-0.7
	c0.3-0.2,0.7-0.3,1.1-0.3c0.5,0,0.8,0.1,1.1,0.3c0.3,0.2,0.5,0.5,0.6,0.8c0.5-0.7,1.1-1.1,1.9-1.1c0.6,0,1.1,0.2,1.4,0.5
	c0.3,0.3,0.5,0.9,0.5,1.6v4.3h-1v-3.9c0-0.4,0-0.7-0.1-0.9c-0.1-0.2-0.2-0.3-0.4-0.5s-0.4-0.2-0.6-0.2c-0.4,0-0.8,0.1-1.1,0.4
	s-0.4,0.8-0.4,1.4v3.6h-1.1v-4c0-0.5-0.1-0.8-0.3-1s-0.4-0.4-0.8-0.4c-0.3,0-0.6,0.1-0.8,0.2s-0.4,0.4-0.5,0.7s-0.2,0.7-0.2,1.3v3.2
	L241.7,339L241.7,339z M256.9,337l1.1,0.1c-0.2,0.6-0.5,1.1-1,1.5s-1.1,0.5-1.8,0.5c-0.9,0-1.6-0.3-2.2-0.8
	c-0.5-0.6-0.8-1.3-0.8-2.4c0-1,0.3-1.8,0.8-2.4s1.2-0.9,2.1-0.9c0.8,0,1.5,0.3,2,0.8c0.5,0.6,0.8,1.4,0.8,2.4c0,0.1,0,0.2,0,0.3
	h-4.6c0,0.7,0.2,1.2,0.6,1.6c0.3,0.4,0.8,0.5,1.3,0.5c0.4,0,0.7-0.1,1-0.3C256.6,337.8,256.8,337.4,256.9,337z M253.5,335.3h3.5
	c0-0.5-0.2-0.9-0.4-1.2c-0.3-0.4-0.8-0.6-1.3-0.6s-0.9,0.2-1.2,0.5C253.7,334.3,253.5,334.7,253.5,335.3z M259.3,337.1l1-0.2
	c0.1,0.4,0.2,0.7,0.5,1c0.3,0.2,0.7,0.3,1.1,0.3c0.5,0,0.8-0.1,1.1-0.3c0.2-0.2,0.4-0.4,0.4-0.7c0-0.2-0.1-0.4-0.3-0.6
	c-0.1-0.1-0.5-0.2-1.1-0.4c-0.8-0.2-1.3-0.4-1.6-0.5c-0.3-0.1-0.5-0.3-0.7-0.6c-0.2-0.3-0.2-0.5-0.2-0.8s0.1-0.5,0.2-0.8
	c0.1-0.3,0.3-0.4,0.5-0.6c0.2-0.1,0.4-0.2,0.7-0.3c0.3-0.1,0.6-0.1,0.9-0.1c0.5,0,0.9,0.1,1.3,0.2s0.7,0.3,0.8,0.6s0.3,0.6,0.4,1
	l-1,0.1c0-0.3-0.2-0.6-0.4-0.7c-0.2-0.2-0.5-0.3-1-0.3s-0.8,0.1-1,0.2c-0.2,0.2-0.3,0.3-0.3,0.6c0,0.1,0,0.3,0.1,0.4
	s0.2,0.2,0.4,0.3c0.1,0,0.4,0.1,0.9,0.3c0.8,0.2,1.3,0.4,1.6,0.5c0.3,0.1,0.5,0.3,0.7,0.5c0.2,0.2,0.2,0.5,0.2,0.9s-0.1,0.7-0.3,1
	c-0.2,0.3-0.5,0.5-0.9,0.7s-0.8,0.2-1.3,0.2c-0.8,0-1.4-0.2-1.9-0.5C259.7,338.3,259.4,337.8,259.3,337.1z M269,338.1l0.2,0.9
	c-0.3,0.1-0.6,0.1-0.8,0.1c-0.4,0-0.7-0.1-0.9-0.2c-0.2-0.1-0.4-0.3-0.5-0.5s-0.1-0.6-0.1-1.2v-3.6h-0.8v-0.8h0.8v-1.5l1-0.6v2.2
	h1.1v0.8h-1.1v3.6c0,0.3,0,0.5,0,0.6s0.1,0.2,0.2,0.2c0.1,0,0.2,0.1,0.4,0.1C268.7,338.1,268.8,338.1,269,338.1z M269.7,331.6v-1.2
	h1.1v1.2H269.7z M269.7,339v-6.2h1.1v6.2H269.7z M276.8,336.7l1,0.1c-0.1,0.7-0.4,1.3-0.9,1.7s-1,0.6-1.7,0.6
	c-0.9,0-1.5-0.3-2.1-0.8c-0.5-0.6-0.8-1.4-0.8-2.4c0-0.7,0.1-1.2,0.3-1.8c0.2-0.5,0.6-0.9,1-1.1c0.5-0.2,1-0.4,1.5-0.4
	c0.7,0,1.2,0.2,1.6,0.5s0.7,0.8,0.8,1.5l-1,0.2c-0.1-0.4-0.3-0.7-0.5-0.9c-0.2-0.2-0.6-0.3-0.9-0.3c-0.5,0-1,0.2-1.3,0.6
	s-0.5,1-0.5,1.8s0.2,1.5,0.5,1.8s0.7,0.6,1.2,0.6c0.4,0,0.8-0.1,1-0.4C276.5,337.6,276.7,337.2,276.8,336.7z M285.7,339v-0.8
	c-0.4,0.6-1,0.9-1.7,0.9c-0.5,0-1-0.1-1.4-0.4s-0.7-0.7-1-1.2s-0.3-1.1-0.3-1.7s0.1-1.2,0.3-1.7s0.5-0.9,0.9-1.2
	c0.4-0.3,0.9-0.4,1.4-0.4c0.4,0,0.7,0.1,1,0.2s0.5,0.4,0.7,0.6v-3.1h1v8.6h-0.9V339z M282.4,335.9c0,0.8,0.2,1.4,0.5,1.8
	s0.7,0.6,1.2,0.6s0.8-0.2,1.2-0.6s0.5-0.9,0.5-1.7c0-0.9-0.2-1.5-0.5-1.9s-0.7-0.6-1.2-0.6s-0.9,0.2-1.2,0.6
	C282.6,334.5,282.4,335.1,282.4,335.9z M292.8,338.2c-0.4,0.3-0.8,0.6-1.1,0.7c-0.4,0.1-0.7,0.2-1.2,0.2c-0.7,0-1.2-0.2-1.6-0.5
	s-0.5-0.8-0.5-1.3c0-0.3,0.1-0.6,0.2-0.8c0.1-0.3,0.3-0.5,0.5-0.6c0.2-0.2,0.5-0.3,0.8-0.3c0.2-0.1,0.5-0.1,0.9-0.2
	c0.8-0.1,1.5-0.2,1.9-0.4c0-0.1,0-0.2,0-0.3c0-0.4-0.1-0.7-0.3-0.9c-0.3-0.2-0.7-0.3-1.2-0.3s-0.9,0.1-1.1,0.3
	c-0.2,0.2-0.4,0.5-0.5,0.9l-1-0.1c0.1-0.4,0.2-0.8,0.5-1.1s0.5-0.5,0.9-0.6s0.9-0.2,1.4-0.2s1,0.1,1.3,0.2s0.6,0.3,0.7,0.5
	s0.3,0.4,0.3,0.7c0,0.2,0,0.5,0,1v1.4c0,1,0,1.6,0.1,1.9s0.1,0.5,0.3,0.8H293C292.9,338.8,292.8,338.5,292.8,338.2z M292.7,335.9
	c-0.4,0.2-1,0.3-1.7,0.4c-0.4,0.1-0.7,0.1-0.9,0.2c-0.2,0.1-0.3,0.2-0.4,0.3c-0.1,0.1-0.1,0.3-0.1,0.5c0,0.3,0.1,0.5,0.3,0.7
	c0.2,0.2,0.5,0.3,0.9,0.3s0.8-0.1,1.1-0.3c0.3-0.2,0.6-0.4,0.7-0.7c0.1-0.2,0.2-0.6,0.2-1v-0.4H292.7z M298,338.1l0.2,0.9
	c-0.3,0.1-0.6,0.1-0.8,0.1c-0.4,0-0.7-0.1-0.9-0.2c-0.2-0.1-0.4-0.3-0.5-0.5s-0.1-0.6-0.1-1.2v-3.6h-0.8v-0.8h0.8v-1.5l1-0.6v2.2
	h1.1v0.8h-1.1v3.6c0,0.3,0,0.5,0,0.6s0.1,0.2,0.2,0.2s0.2,0.1,0.4,0.1C297.7,338.1,297.8,338.1,298,338.1z M302.8,338.2
	c-0.4,0.3-0.8,0.6-1.1,0.7c-0.4,0.1-0.7,0.2-1.2,0.2c-0.7,0-1.2-0.2-1.6-0.5s-0.5-0.8-0.5-1.3c0-0.3,0.1-0.6,0.2-0.8
	c0.1-0.3,0.3-0.5,0.5-0.6c0.2-0.2,0.5-0.3,0.8-0.3c0.2-0.1,0.5-0.1,0.9-0.2c0.8-0.1,1.5-0.2,1.9-0.4c0-0.1,0-0.2,0-0.3
	c0-0.4-0.1-0.7-0.3-0.9c-0.3-0.2-0.7-0.3-1.2-0.3s-0.9,0.1-1.1,0.3c-0.2,0.2-0.4,0.5-0.5,0.9l-1-0.1c0.1-0.4,0.2-0.8,0.5-1.1
	s0.5-0.5,0.9-0.6s0.9-0.2,1.4-0.2s1,0.1,1.3,0.2s0.6,0.3,0.7,0.5s0.3,0.4,0.3,0.7c0,0.2,0,0.5,0,1v1.4c0,1,0,1.6,0.1,1.9
	s0.1,0.5,0.3,0.8H303C302.9,338.8,302.8,338.5,302.8,338.2z M302.7,335.9c-0.4,0.2-1,0.3-1.7,0.4c-0.4,0.1-0.7,0.1-0.9,0.2
	c-0.2,0.1-0.3,0.2-0.4,0.3c-0.1,0.1-0.1,0.3-0.1,0.5c0,0.3,0.1,0.5,0.3,0.7c0.2,0.2,0.5,0.3,0.9,0.3s0.8-0.1,1.1-0.3
	c0.3-0.2,0.6-0.4,0.7-0.7c0.1-0.2,0.2-0.6,0.2-1v-0.4H302.7z"/>
<path class="st33" d="M320.9,330c0-0.6,0.4-1,1-1h10c0.6,0,1,0.4,1,1v10c0,0.6-0.4,1-1,1h-10c-0.6,0-1-0.4-1-1V330z"/>
<path class="st31" d="M342,339v-8.6h1.1v8.6H342z M344.7,339v-6.2h0.9v0.9c0.5-0.7,1.1-1,2-1c0.4,0,0.7,0.1,1,0.2s0.6,0.3,0.7,0.5
	s0.3,0.5,0.3,0.8c0,0.2,0,0.5,0,1v3.8h-1v-3.8c0-0.4,0-0.8-0.1-1s-0.2-0.4-0.4-0.5c-0.2-0.1-0.5-0.2-0.7-0.2c-0.4,0-0.8,0.1-1.2,0.4
	c-0.3,0.3-0.5,0.8-0.5,1.6v3.4h-1V339z M354,338.1l0.2,0.9c-0.3,0.1-0.6,0.1-0.8,0.1c-0.4,0-0.7-0.1-0.9-0.2
	c-0.2-0.1-0.4-0.3-0.5-0.5s-0.1-0.6-0.1-1.2v-3.6h-0.8v-0.8h0.8v-1.5l1-0.6v2.2h1.1v0.8h-1.1v3.6c0,0.3,0,0.5,0,0.6s0.1,0.2,0.2,0.2
	s0.2,0.1,0.4,0.1C353.7,338.1,353.8,338.1,354,338.1z M358.9,337l1.1,0.1c-0.2,0.6-0.5,1.1-1,1.5s-1.1,0.5-1.8,0.5
	c-0.9,0-1.6-0.3-2.2-0.8c-0.5-0.6-0.8-1.3-0.8-2.4c0-1,0.3-1.8,0.8-2.4s1.2-0.9,2.1-0.9c0.8,0,1.5,0.3,2,0.8
	c0.5,0.6,0.8,1.4,0.8,2.4c0,0.1,0,0.2,0,0.3h-4.6c0,0.7,0.2,1.2,0.6,1.6c0.3,0.4,0.8,0.5,1.3,0.5c0.4,0,0.7-0.1,1-0.3
	C358.6,337.8,358.8,337.4,358.9,337z M355.5,335.3h3.5c0-0.5-0.2-0.9-0.4-1.2c-0.3-0.4-0.8-0.6-1.3-0.6s-0.9,0.2-1.2,0.5
	C355.7,334.3,355.5,334.7,355.5,335.3z M361.7,339v-6.2h1v0.9c0.2-0.4,0.5-0.7,0.7-0.9c0.2-0.1,0.4-0.2,0.7-0.2
	c0.4,0,0.7,0.1,1.1,0.3l-0.4,1c-0.3-0.2-0.5-0.2-0.8-0.2c-0.2,0-0.5,0.1-0.6,0.2c-0.2,0.1-0.3,0.3-0.4,0.6c-0.1,0.4-0.2,0.8-0.2,1.2
	v3.3L361.7,339L361.7,339z M369.8,338.2c-0.4,0.3-0.8,0.6-1.1,0.7c-0.4,0.1-0.7,0.2-1.2,0.2c-0.7,0-1.2-0.2-1.6-0.5
	s-0.5-0.8-0.5-1.3c0-0.3,0.1-0.6,0.2-0.8c0.1-0.3,0.3-0.5,0.5-0.6c0.2-0.2,0.5-0.3,0.8-0.3c0.2-0.1,0.5-0.1,0.9-0.2
	c0.8-0.1,1.5-0.2,1.9-0.4c0-0.1,0-0.2,0-0.3c0-0.4-0.1-0.7-0.3-0.9c-0.3-0.2-0.7-0.3-1.2-0.3s-0.9,0.1-1.1,0.3
	c-0.2,0.2-0.4,0.5-0.5,0.9l-1-0.1c0.1-0.4,0.2-0.8,0.5-1.1s0.5-0.5,0.9-0.6s0.9-0.2,1.4-0.2s1,0.1,1.3,0.2s0.6,0.3,0.7,0.5
	s0.3,0.4,0.3,0.7c0,0.2,0,0.5,0,1v1.4c0,1,0,1.6,0.1,1.9s0.1,0.5,0.3,0.8H370C369.9,338.8,369.8,338.5,369.8,338.2z M369.7,335.9
	c-0.4,0.2-1,0.3-1.7,0.4c-0.4,0.1-0.7,0.1-0.9,0.2c-0.2,0.1-0.3,0.2-0.4,0.3c-0.1,0.1-0.1,0.3-0.1,0.5c0,0.3,0.1,0.5,0.3,0.7
	c0.2,0.2,0.5,0.3,0.9,0.3s0.8-0.1,1.1-0.3c0.3-0.2,0.6-0.4,0.7-0.7c0.1-0.2,0.2-0.6,0.2-1v-0.4H369.7z M375,338.1l0.2,0.9
	c-0.3,0.1-0.6,0.1-0.8,0.1c-0.4,0-0.7-0.1-0.9-0.2c-0.2-0.1-0.4-0.3-0.5-0.5s-0.1-0.6-0.1-1.2v-3.6h-0.8v-0.8h0.8v-1.5l1-0.6v2.2
	h1.1v0.8h-1.1v3.6c0,0.3,0,0.5,0,0.6s0.1,0.2,0.2,0.2s0.2,0.1,0.4,0.1C374.7,338.1,374.8,338.1,375,338.1z M375.7,331.6v-1.2h1.1
	v1.2H375.7z M375.7,339v-6.2h1.1v6.2H375.7z M378.3,335.9c0-1.2,0.3-2,1-2.6c0.5-0.5,1.2-0.7,2-0.7c0.9,0,1.6,0.3,2.1,0.8
	c0.6,0.6,0.8,1.3,0.8,2.3c0,0.8-0.1,1.4-0.4,1.9s-0.6,0.8-1.1,1.1c-0.5,0.2-1,0.4-1.5,0.4c-0.9,0-1.6-0.3-2.1-0.8
	C378.6,337.8,378.3,336.9,378.3,335.9z M379.4,335.9c0,0.8,0.2,1.4,0.5,1.8c0.4,0.4,0.8,0.6,1.3,0.6s1-0.2,1.3-0.6s0.5-1,0.5-1.8
	s-0.2-1.4-0.5-1.8s-0.8-0.6-1.3-0.6s-1,0.2-1.3,0.6S379.4,335.1,379.4,335.9z M385.7,339v-6.2h0.9v0.9c0.5-0.7,1.1-1,2-1
	c0.4,0,0.7,0.1,1,0.2s0.6,0.3,0.7,0.5s0.3,0.5,0.3,0.8c0,0.2,0,0.5,0,1v3.8h-1v-3.8c0-0.4,0-0.8-0.1-1s-0.2-0.4-0.4-0.5
	c-0.2-0.1-0.5-0.2-0.7-0.2c-0.4,0-0.8,0.1-1.2,0.4c-0.3,0.3-0.5,0.8-0.5,1.6v3.4h-1V339z M396.8,338.2c-0.4,0.3-0.8,0.6-1.1,0.7
	c-0.4,0.1-0.7,0.2-1.2,0.2c-0.7,0-1.2-0.2-1.6-0.5s-0.5-0.8-0.5-1.3c0-0.3,0.1-0.6,0.2-0.8c0.1-0.3,0.3-0.5,0.5-0.6
	c0.2-0.2,0.5-0.3,0.8-0.3c0.2-0.1,0.5-0.1,0.9-0.2c0.8-0.1,1.5-0.2,1.9-0.4c0-0.1,0-0.2,0-0.3c0-0.4-0.1-0.7-0.3-0.9
	c-0.3-0.2-0.7-0.3-1.2-0.3s-0.9,0.1-1.1,0.3c-0.2,0.2-0.4,0.5-0.5,0.9l-1-0.1c0.1-0.4,0.2-0.8,0.5-1.1s0.5-0.5,0.9-0.6
	s0.9-0.2,1.4-0.2s1,0.1,1.3,0.2s0.6,0.3,0.7,0.5s0.3,0.4,0.3,0.7c0,0.2,0,0.5,0,1v1.4c0,1,0,1.6,0.1,1.9s0.1,0.5,0.3,0.8H397
	C396.9,338.8,396.8,338.5,396.8,338.2z M396.7,335.9c-0.4,0.2-1,0.3-1.7,0.4c-0.4,0.1-0.7,0.1-0.9,0.2c-0.2,0.1-0.3,0.2-0.4,0.3
	c-0.1,0.1-0.1,0.3-0.1,0.5c0,0.3,0.1,0.5,0.3,0.7c0.2,0.2,0.5,0.3,0.9,0.3s0.8-0.1,1.1-0.3c0.3-0.2,0.6-0.4,0.7-0.7
	c0.1-0.2,0.2-0.6,0.2-1v-0.4H396.7z M399.7,339v-8.6h1.1v8.6H399.7z M409.7,339v-0.8c-0.4,0.6-1,0.9-1.7,0.9c-0.5,0-1-0.1-1.4-0.4
	s-0.7-0.7-1-1.2s-0.3-1.1-0.3-1.7s0.1-1.2,0.3-1.7s0.5-0.9,0.9-1.2c0.4-0.3,0.9-0.4,1.4-0.4c0.4,0,0.7,0.1,1,0.2s0.5,0.4,0.7,0.6
	v-3.1h1v8.6h-0.9V339z M406.4,335.9c0,0.8,0.2,1.4,0.5,1.8s0.7,0.6,1.2,0.6s0.8-0.2,1.2-0.6s0.5-0.9,0.5-1.7c0-0.9-0.2-1.5-0.5-1.9
	s-0.7-0.6-1.2-0.6s-0.9,0.2-1.2,0.6C406.6,334.5,406.4,335.1,406.4,335.9z M416.8,338.2c-0.4,0.3-0.8,0.6-1.1,0.7
	c-0.4,0.1-0.7,0.2-1.2,0.2c-0.7,0-1.2-0.2-1.6-0.5s-0.5-0.8-0.5-1.3c0-0.3,0.1-0.6,0.2-0.8c0.1-0.3,0.3-0.5,0.5-0.6
	c0.2-0.2,0.5-0.3,0.8-0.3c0.2-0.1,0.5-0.1,0.9-0.2c0.8-0.1,1.5-0.2,1.9-0.4c0-0.1,0-0.2,0-0.3c0-0.4-0.1-0.7-0.3-0.9
	c-0.3-0.2-0.7-0.3-1.2-0.3s-0.9,0.1-1.1,0.3c-0.2,0.2-0.4,0.5-0.5,0.9l-1-0.1c0.1-0.4,0.2-0.8,0.5-1.1s0.5-0.5,0.9-0.6
	s0.9-0.2,1.4-0.2s1,0.1,1.3,0.2s0.6,0.3,0.7,0.5s0.3,0.4,0.3,0.7c0,0.2,0,0.5,0,1v1.4c0,1,0,1.6,0.1,1.9s0.1,0.5,0.3,0.8H417
	C416.9,338.8,416.8,338.5,416.8,338.2z M416.7,335.9c-0.4,0.2-1,0.3-1.7,0.4c-0.4,0.1-0.7,0.1-0.9,0.2c-0.2,0.1-0.3,0.2-0.4,0.3
	c-0.1,0.1-0.1,0.3-0.1,0.5c0,0.3,0.1,0.5,0.3,0.7c0.2,0.2,0.5,0.3,0.9,0.3s0.8-0.1,1.1-0.3c0.3-0.2,0.6-0.4,0.7-0.7
	c0.1-0.2,0.2-0.6,0.2-1v-0.4H416.7z M422,338.1l0.2,0.9c-0.3,0.1-0.6,0.1-0.8,0.1c-0.4,0-0.7-0.1-0.9-0.2c-0.2-0.1-0.4-0.3-0.5-0.5
	s-0.1-0.6-0.1-1.2v-3.6h-0.8v-0.8h0.8v-1.5l1-0.6v2.2h1.1v0.8h-1.1v3.6c0,0.3,0,0.5,0,0.6s0.1,0.2,0.2,0.2s0.2,0.1,0.4,0.1
	C421.7,338.1,421.8,338.1,422,338.1z M426.8,338.2c-0.4,0.3-0.8,0.6-1.1,0.7c-0.4,0.1-0.7,0.2-1.2,0.2c-0.7,0-1.2-0.2-1.6-0.5
	s-0.5-0.8-0.5-1.3c0-0.3,0.1-0.6,0.2-0.8c0.1-0.3,0.3-0.5,0.5-0.6c0.2-0.2,0.5-0.3,0.8-0.3c0.2-0.1,0.5-0.1,0.9-0.2
	c0.8-0.1,1.5-0.2,1.9-0.4c0-0.1,0-0.2,0-0.3c0-0.4-0.1-0.7-0.3-0.9c-0.3-0.2-0.7-0.3-1.2-0.3s-0.9,0.1-1.1,0.3
	c-0.2,0.2-0.4,0.5-0.5,0.9l-1-0.1c0.1-0.4,0.2-0.8,0.5-1.1s0.5-0.5,0.9-0.6s0.9-0.2,1.4-0.2s1,0.1,1.3,0.2s0.6,0.3,0.7,0.5
	s0.3,0.4,0.3,0.7c0,0.2,0,0.5,0,1v1.4c0,1,0,1.6,0.1,1.9s0.1,0.5,0.3,0.8H427C426.9,338.8,426.8,338.5,426.8,338.2z M426.7,335.9
	c-0.4,0.2-1,0.3-1.7,0.4c-0.4,0.1-0.7,0.1-0.9,0.2c-0.2,0.1-0.3,0.2-0.4,0.3c-0.1,0.1-0.1,0.3-0.1,0.5c0,0.3,0.1,0.5,0.3,0.7
	c0.2,0.2,0.5,0.3,0.9,0.3s0.8-0.1,1.1-0.3c0.3-0.2,0.6-0.4,0.7-0.7c0.1-0.2,0.2-0.6,0.2-1v-0.4H426.7z"/>
<path class="st31" d="M36.8,37V22.7h1.9V37H36.8z M42.2,37V26.6h1.6v1.5c0.8-1.1,1.9-1.7,3.3-1.7c0.6,0,1.2,0.1,1.7,0.3
	c0.5,0.2,0.9,0.5,1.2,0.9s0.4,0.8,0.5,1.3c0.1,0.3,0.1,0.9,0.1,1.7V37h-1.7v-6.3c0-0.7-0.1-1.3-0.2-1.6c-0.1-0.3-0.4-0.6-0.7-0.8
	c-0.3-0.2-0.8-0.3-1.2-0.3c-0.8,0-1.4,0.2-1.9,0.7s-0.8,1.4-0.8,2.7V37H42.2z M56.1,35.4l0.2,1.6c-0.5,0.1-0.9,0.2-1.3,0.2
	c-0.6,0-1.1-0.1-1.5-0.3c-0.3-0.2-0.6-0.5-0.7-0.8c-0.1-0.3-0.2-1-0.2-2.1v-6h-1.3v-1.4h1.3V24l1.8-1.1v3.6h1.8V28h-1.8v6.1
	c0,0.5,0,0.8,0.1,1c0.1,0.1,0.2,0.2,0.3,0.3s0.3,0.1,0.6,0.1C55.5,35.5,55.7,35.5,56.1,35.4z M65.3,33.7l1.8,0.2
	c-0.3,1.1-0.8,1.9-1.6,2.5c-0.8,0.6-1.8,0.9-3,0.9c-1.5,0-2.7-0.5-3.6-1.4C58,35,57.6,33.7,57.6,32c0-1.8,0.4-3.1,1.3-4.1
	c0.9-1,2.1-1.5,3.5-1.5s2.5,0.5,3.4,1.4s1.3,2.3,1.3,4c0,0.1,0,0.3,0,0.5h-7.7c0.1,1.1,0.4,2,1,2.6s1.3,0.9,2.2,0.9
	c0.6,0,1.2-0.2,1.6-0.5C64.7,34.9,65.1,34.4,65.3,33.7z M59.5,30.8h5.8c-0.1-0.9-0.3-1.5-0.7-2c-0.6-0.7-1.3-1-2.2-1
	c-0.8,0-1.5,0.3-2,0.8C59.9,29.2,59.6,29.9,59.5,30.8z M69.2,37V26.6h1.6v1.6c0.4-0.7,0.8-1.2,1.1-1.5c0.3-0.2,0.7-0.4,1.1-0.4
	c0.6,0,1.2,0.2,1.8,0.6l-0.6,1.6c-0.4-0.3-0.9-0.4-1.3-0.4s-0.7,0.1-1,0.4c-0.3,0.2-0.5,0.5-0.7,1c-0.2,0.6-0.3,1.3-0.3,2V37H69.2z
	 M76.2,37V26.6h1.6v1.5c0.8-1.1,1.9-1.7,3.3-1.7c0.6,0,1.2,0.1,1.7,0.3c0.5,0.2,0.9,0.5,1.2,0.9s0.4,0.8,0.5,1.3
	c0.1,0.3,0.1,0.9,0.1,1.7V37h-1.7v-6.3c0-0.7-0.1-1.3-0.2-1.6s-0.4-0.6-0.7-0.8c-0.3-0.2-0.8-0.3-1.2-0.3c-0.8,0-1.4,0.2-1.9,0.7
	s-0.8,1.4-0.8,2.7V37H76.2z M93,35.7c-0.7,0.6-1.3,0.9-1.9,1.2s-1.2,0.3-1.9,0.3c-1.1,0-2-0.3-2.6-0.8c-0.6-0.6-0.9-1.3-0.9-2.1
	c0-0.5,0.1-1,0.3-1.4c0.2-0.4,0.5-0.8,0.9-1c0.4-0.3,0.8-0.5,1.3-0.6c0.3-0.1,0.9-0.2,1.6-0.3c1.4-0.2,2.5-0.4,3.1-0.6
	c0-0.2,0-0.4,0-0.5c0-0.7-0.2-1.2-0.5-1.5c-0.4-0.4-1.1-0.6-2-0.6c-0.8,0-1.4,0.1-1.8,0.4s-0.7,0.8-0.9,1.5l-1.8-0.1
	c0.2-0.7,0.4-1.3,0.8-1.8s0.9-0.8,1.5-1c0.7-0.2,1.5-0.4,2.4-0.4s1.6,0.1,2.2,0.3s1,0.5,1.2,0.8c0.3,0.3,0.4,0.7,0.5,1.2
	c0.1,0.3,0.1,0.8,0.1,1.6v2.3c0,1.6,0,2.7,0.1,3.1c0.1,0.4,0.2,0.8,0.5,1.2h-1.8C93.2,36.6,93,36.2,93,35.7z M92.8,31.8
	c-0.6,0.3-1.6,0.5-2.9,0.7c-0.7,0.1-1.2,0.2-1.5,0.4c-0.3,0.1-0.5,0.3-0.7,0.6s-0.2,0.5-0.2,0.8c0,0.5,0.2,0.9,0.5,1.2
	s0.9,0.5,1.6,0.5s1.3-0.1,1.8-0.4c0.5-0.3,0.9-0.7,1.2-1.2c0.2-0.4,0.3-1,0.3-1.8v-0.8H92.8z M101.1,35.4l0.2,1.6
	c-0.5,0.1-0.9,0.2-1.3,0.2c-0.6,0-1.1-0.1-1.5-0.3c-0.3-0.2-0.6-0.5-0.7-0.8s-0.2-1-0.2-2.1v-6h-1.3v-1.4h1.3V24l1.8-1.1v3.6h1.8V28
	h-1.8v6.1c0,0.5,0,0.8,0.1,1c0.1,0.1,0.2,0.2,0.3,0.3c0.1,0.1,0.3,0.1,0.6,0.1C100.5,35.5,100.7,35.5,101.1,35.4z M103.2,24.7v-2
	h1.8v2H103.2z M103.2,37V26.6h1.8V37H103.2z M106.6,31.8c0-1.9,0.5-3.3,1.6-4.3c0.9-0.8,2-1.2,3.3-1.2c1.4,0,2.6,0.5,3.5,1.4
	s1.4,2.2,1.4,3.9c0,1.3-0.2,2.4-0.6,3.2s-1,1.4-1.8,1.8c-0.8,0.4-1.6,0.6-2.5,0.6c-1.5,0-2.6-0.5-3.5-1.4
	C107,34.9,106.6,33.6,106.6,31.8z M108.4,31.8c0,1.3,0.3,2.3,0.9,3s1.3,1,2.2,1c0.9,0,1.6-0.3,2.2-1s0.9-1.7,0.9-3s-0.3-2.2-0.9-2.9
	c-0.6-0.7-1.3-1-2.2-1c-0.9,0-1.6,0.3-2.2,1C108.7,29.5,108.4,30.5,108.4,31.8z M118.2,37V26.6h1.6v1.5c0.8-1.1,1.9-1.7,3.3-1.7
	c0.6,0,1.2,0.1,1.7,0.3c0.5,0.2,0.9,0.5,1.2,0.9s0.4,0.8,0.5,1.3c0.1,0.3,0.1,0.9,0.1,1.7V37h-1.7v-6.3c0-0.7-0.1-1.3-0.2-1.6
	s-0.4-0.6-0.7-0.8c-0.3-0.2-0.8-0.3-1.2-0.3c-0.8,0-1.4,0.2-1.9,0.7s-0.8,1.4-0.8,2.7V37H118.2z M135,35.7c-0.7,0.6-1.3,0.9-1.9,1.2
	c-0.6,0.3-1.2,0.3-1.9,0.3c-1.1,0-2-0.3-2.6-0.8c-0.6-0.6-0.9-1.3-0.9-2.1c0-0.5,0.1-1,0.3-1.4s0.5-0.8,0.9-1
	c0.4-0.3,0.8-0.5,1.3-0.6c0.3-0.1,0.9-0.2,1.6-0.3c1.4-0.2,2.5-0.4,3.1-0.6c0-0.2,0-0.4,0-0.5c0-0.7-0.2-1.2-0.5-1.5
	c-0.4-0.4-1.1-0.6-2-0.6c-0.8,0-1.4,0.1-1.8,0.4c-0.4,0.3-0.7,0.8-0.9,1.5l-1.7-0.2c0.2-0.7,0.4-1.3,0.8-1.8c0.4-0.5,0.9-0.8,1.5-1
	c0.7-0.2,1.5-0.4,2.4-0.4c0.9,0,1.6,0.1,2.2,0.3c0.6,0.2,1,0.5,1.2,0.8c0.3,0.3,0.4,0.7,0.5,1.2c0.1,0.3,0.1,0.8,0.1,1.6v2.3
	c0,1.6,0,2.7,0.1,3.1c0.1,0.4,0.2,0.8,0.5,1.2h-1.8C135.2,36.6,135,36.2,135,35.7z M134.8,31.8c-0.6,0.3-1.6,0.5-2.9,0.7
	c-0.7,0.1-1.2,0.2-1.5,0.4c-0.3,0.1-0.5,0.3-0.7,0.6s-0.2,0.5-0.2,0.8c0,0.5,0.2,0.9,0.5,1.2s0.9,0.5,1.6,0.5s1.3-0.1,1.8-0.4
	c0.5-0.3,0.9-0.7,1.2-1.2c0.2-0.4,0.3-1,0.3-1.8v-0.8H134.8z M139.2,37V22.7h1.8V37H139.2z M156,35.7c-0.7,0.6-1.3,0.9-1.9,1.2
	s-1.2,0.3-1.9,0.3c-1.1,0-2-0.3-2.6-0.8c-0.6-0.6-0.9-1.3-0.9-2.1c0-0.5,0.1-1,0.3-1.4s0.5-0.8,0.9-1c0.4-0.3,0.8-0.5,1.3-0.6
	c0.3-0.1,0.9-0.2,1.6-0.3c1.4-0.2,2.5-0.4,3.1-0.6c0-0.2,0-0.4,0-0.5c0-0.7-0.2-1.2-0.5-1.5c-0.4-0.4-1.1-0.6-2-0.6
	c-0.8,0-1.4,0.1-1.8,0.4c-0.4,0.3-0.7,0.8-0.9,1.5l-1.7-0.2c0.2-0.7,0.4-1.3,0.8-1.8c0.4-0.5,0.9-0.8,1.5-1c0.7-0.2,1.5-0.4,2.4-0.4
	s1.6,0.1,2.2,0.3s1,0.5,1.2,0.8c0.3,0.3,0.4,0.7,0.5,1.2c0.1,0.3,0.1,0.8,0.1,1.6v2.3c0,1.6,0,2.7,0.1,3.1c0.1,0.4,0.2,0.8,0.5,1.2
	h-1.8C156.2,36.6,156,36.2,156,35.7z M155.8,31.8c-0.6,0.3-1.6,0.5-2.9,0.7c-0.7,0.1-1.2,0.2-1.5,0.4c-0.3,0.1-0.5,0.3-0.7,0.6
	s-0.2,0.5-0.2,0.8c0,0.5,0.2,0.9,0.5,1.2s0.9,0.5,1.6,0.5c0.7,0,1.3-0.1,1.8-0.4c0.5-0.3,0.9-0.7,1.2-1.2c0.2-0.4,0.3-1,0.3-1.8
	v-0.8H155.8z M160.2,37V26.6h1.6v1.5c0.8-1.1,1.9-1.7,3.3-1.7c0.6,0,1.2,0.1,1.7,0.3c0.5,0.2,0.9,0.5,1.2,0.9s0.4,0.8,0.5,1.3
	c0.1,0.3,0.1,0.9,0.1,1.7V37h-1.7v-6.3c0-0.7-0.1-1.3-0.2-1.6s-0.4-0.6-0.7-0.8c-0.3-0.2-0.8-0.3-1.2-0.3c-0.8,0-1.4,0.2-1.9,0.7
	s-0.8,1.4-0.8,2.7V37H160.2z M176.9,37v-1.3c-0.7,1-1.6,1.5-2.9,1.5c-0.8,0-1.6-0.2-2.3-0.7s-1.2-1.1-1.6-1.9
	c-0.4-0.8-0.6-1.8-0.6-2.8s0.2-2,0.5-2.8s0.9-1.5,1.5-1.9c0.7-0.4,1.5-0.7,2.3-0.7c0.6,0,1.2,0.1,1.7,0.4s0.9,0.6,1.2,1v-5.1h1.7V37
	H176.9z M171.4,31.8c0,1.3,0.3,2.3,0.8,3s1.2,1,2,1s1.4-0.3,2-0.9c0.5-0.6,0.8-1.6,0.8-2.9c0-1.4-0.3-2.5-0.8-3.1
	c-0.5-0.7-1.2-1-2-1s-1.4,0.3-2,1C171.6,29.4,171.4,30.5,171.4,31.8z M187.4,37V22.7h4.9c1.1,0,2,0.1,2.6,0.2c0.8,0.2,1.5,0.5,2.1,1
	c0.8,0.6,1.3,1.5,1.7,2.5s0.6,2.1,0.6,3.4c0,1.1-0.1,2-0.4,2.9c-0.2,0.8-0.6,1.5-1,2.1s-0.8,1-1.3,1.3s-1,0.6-1.7,0.7
	c-0.7,0.2-1.4,0.2-2.3,0.2H187.4z M189.3,35.3h3.1c0.9,0,1.7-0.1,2.2-0.3s1-0.4,1.3-0.8c0.4-0.4,0.8-1,1-1.8s0.4-1.7,0.4-2.8
	c0-1.5-0.2-2.7-0.7-3.5s-1.1-1.3-1.8-1.6c-0.5-0.2-1.3-0.3-2.4-0.3h-3v11.1H189.3z M200.6,31.8c0-1.9,0.5-3.3,1.6-4.3
	c0.9-0.8,2-1.2,3.3-1.2c1.4,0,2.6,0.5,3.5,1.4s1.4,2.2,1.4,3.9c0,1.3-0.2,2.4-0.6,3.2c-0.4,0.8-1,1.4-1.8,1.8
	c-0.8,0.4-1.6,0.6-2.5,0.6c-1.5,0-2.6-0.5-3.5-1.4C201,34.9,200.6,33.6,200.6,31.8z M202.4,31.8c0,1.3,0.3,2.3,0.9,3
	c0.6,0.7,1.3,1,2.2,1s1.6-0.3,2.2-1c0.6-0.7,0.9-1.7,0.9-3s-0.3-2.2-0.9-2.9c-0.6-0.7-1.3-1-2.2-1s-1.6,0.3-2.2,1
	C202.7,29.5,202.4,30.5,202.4,31.8z M212.2,37V26.6h1.6v1.5c0.3-0.5,0.8-0.9,1.3-1.2s1.2-0.5,1.8-0.5c0.8,0,1.4,0.2,1.9,0.5
	s0.8,0.8,1,1.3c0.8-1.2,1.9-1.8,3.2-1.8c1,0,1.8,0.3,2.4,0.9s0.8,1.4,0.8,2.6V37h-1.8v-6.5c0-0.7-0.1-1.2-0.2-1.5
	c-0.1-0.3-0.3-0.6-0.6-0.8c-0.3-0.2-0.6-0.3-1-0.3c-0.7,0-1.3,0.2-1.8,0.7s-0.7,1.2-0.7,2.3v6h-1.8v-6.7c0-0.8-0.1-1.4-0.4-1.8
	c-0.3-0.4-0.8-0.6-1.4-0.6c-0.5,0-0.9,0.1-1.4,0.4c-0.4,0.3-0.7,0.6-0.9,1.1s-0.3,1.2-0.3,2.2V37H212.2z M235.3,33.7l1.8,0.2
	c-0.3,1.1-0.8,1.9-1.6,2.5s-1.8,0.9-3,0.9c-1.5,0-2.7-0.5-3.6-1.4c-0.9-0.9-1.3-2.2-1.3-3.9c0-1.8,0.4-3.1,1.3-4.1
	c0.9-1,2.1-1.5,3.5-1.5s2.5,0.5,3.4,1.4s1.3,2.3,1.3,4c0,0.1,0,0.3,0,0.5h-7.7c0.1,1.1,0.4,2,1,2.6s1.3,0.9,2.2,0.9
	c0.6,0,1.2-0.2,1.6-0.5C234.7,34.9,235.1,34.4,235.3,33.7z M229.5,30.8h5.8c-0.1-0.9-0.3-1.5-0.7-2c-0.6-0.7-1.3-1-2.2-1
	c-0.8,0-1.5,0.3-2,0.8C229.9,29.2,229.6,29.9,229.5,30.8z M238.5,33.9l1.8-0.3c0.1,0.7,0.4,1.2,0.8,1.6c0.4,0.4,1.1,0.5,1.9,0.5
	s1.4-0.2,1.8-0.5c0.4-0.3,0.6-0.7,0.6-1.2c0-0.4-0.2-0.7-0.5-0.9c-0.2-0.2-0.8-0.4-1.8-0.6c-1.3-0.3-2.2-0.6-2.7-0.8
	c-0.5-0.2-0.9-0.6-1.1-1c-0.3-0.4-0.4-0.9-0.4-1.4s0.1-0.9,0.3-1.3s0.5-0.7,0.9-1c0.3-0.2,0.6-0.4,1.1-0.5s1-0.2,1.5-0.2
	c0.8,0,1.5,0.1,2.1,0.4c0.6,0.2,1.1,0.5,1.4,1c0.3,0.4,0.5,0.9,0.6,1.6l-1.7,0.2c-0.1-0.5-0.3-0.9-0.7-1.2c-0.4-0.3-0.9-0.5-1.6-0.5
	c-0.8,0-1.4,0.1-1.7,0.4s-0.5,0.6-0.5,0.9c0,0.2,0.1,0.4,0.2,0.6c0.1,0.2,0.4,0.3,0.7,0.5c0.2,0.1,0.7,0.2,1.5,0.4
	c1.2,0.3,2.1,0.6,2.6,0.8c0.5,0.2,0.9,0.5,1.2,0.9c0.3,0.4,0.4,0.9,0.4,1.5s-0.2,1.1-0.5,1.7s-0.8,0.9-1.5,1.2s-1.4,0.4-2.2,0.4
	c-1.3,0-2.4-0.3-3.1-0.8S238.7,35,238.5,33.9z M253.1,35.4l0.2,1.6c-0.5,0.1-0.9,0.2-1.3,0.2c-0.6,0-1.1-0.1-1.5-0.3
	c-0.3-0.2-0.6-0.5-0.7-0.8c-0.1-0.3-0.2-1-0.2-2.1v-6h-1.3v-1.4h1.3V24l1.8-1.1v3.6h1.8V28h-1.8v6.1c0,0.5,0,0.8,0.1,1
	c0.1,0.1,0.2,0.2,0.3,0.3s0.3,0.1,0.6,0.1C252.5,35.5,252.7,35.5,253.1,35.4z M255.2,24.7v-2h1.8v2H255.2z M255.2,37V26.6h1.8V37
	H255.2z M266,33.2l1.7,0.2c-0.2,1.2-0.7,2.1-1.5,2.8c-0.8,0.7-1.7,1-2.9,1c-1.4,0-2.6-0.5-3.4-1.4s-1.3-2.3-1.3-4
	c0-1.1,0.2-2.1,0.5-2.9c0.4-0.8,0.9-1.5,1.7-1.9c0.8-0.4,1.6-0.6,2.5-0.6c1.1,0,2,0.3,2.8,0.9c0.7,0.6,1.2,1.4,1.4,2.4l-1.7,0.3
	c-0.2-0.7-0.4-1.2-0.9-1.6c-0.4-0.4-0.9-0.5-1.5-0.5c-0.9,0-1.6,0.3-2.2,1c-0.6,0.7-0.8,1.6-0.8,3c0,1.4,0.3,2.4,0.8,3
	s1.2,0.9,2.1,0.9c0.7,0,1.3-0.2,1.7-0.6C265.6,34.7,265.9,34.1,266,33.2z M275.4,37V22.7h2.9l3.4,10.1c0.3,0.9,0.5,1.7,0.7,2.1
	c0.2-0.5,0.4-1.3,0.8-2.3l3.4-10h2.5V37h-1.8V25l-4.2,12h-1.7l-4.1-12.2V37H275.4z M291.6,31.8c0-1.9,0.5-3.3,1.6-4.3
	c0.9-0.8,2-1.2,3.3-1.2c1.4,0,2.6,0.5,3.5,1.4s1.4,2.2,1.4,3.9c0,1.3-0.2,2.4-0.6,3.2s-1,1.4-1.8,1.8c-0.8,0.4-1.6,0.6-2.5,0.6
	c-1.5,0-2.6-0.5-3.5-1.4C292,34.9,291.6,33.6,291.6,31.8z M293.4,31.8c0,1.3,0.3,2.3,0.9,3s1.3,1,2.2,1c0.9,0,1.6-0.3,2.2-1
	s0.9-1.7,0.9-3s-0.3-2.2-0.9-2.9c-0.6-0.7-1.3-1-2.2-1c-0.9,0-1.6,0.3-2.2,1C293.7,29.5,293.4,30.5,293.4,31.8z M306.1,37l-4-10.4
	h1.9l2.2,6.2c0.2,0.7,0.5,1.4,0.7,2.1c0.2-0.5,0.4-1.2,0.7-2l2.3-6.3h1.8l-4,10.4H306.1z M312.2,24.7v-2h1.8v2H312.2z M312.2,37
	V26.6h1.8V37H312.2z M323.3,33.7l1.8,0.2c-0.3,1.1-0.8,1.9-1.6,2.5c-0.8,0.6-1.8,0.9-3,0.9c-1.5,0-2.7-0.5-3.6-1.4s-1.3-2.2-1.3-3.9
	c0-1.8,0.4-3.1,1.3-4.1s2.1-1.5,3.5-1.5s2.5,0.5,3.4,1.4s1.3,2.3,1.3,4c0,0.1,0,0.3,0,0.5h-7.7c0.1,1.1,0.4,2,1,2.6s1.3,0.9,2.2,0.9
	c0.6,0,1.2-0.2,1.6-0.5C322.7,34.9,323.1,34.4,323.3,33.7z M317.5,30.8h5.8c-0.1-0.9-0.3-1.5-0.7-2c-0.6-0.7-1.3-1-2.2-1
	c-0.8,0-1.5,0.3-2,0.8C317.9,29.2,317.6,29.9,317.5,30.8z M332.8,32.4l1.8-0.2c0.1,0.7,0.3,1.3,0.6,1.8c0.3,0.5,0.8,0.8,1.4,1.1
	c0.7,0.3,1.4,0.4,2.2,0.4c0.7,0,1.4-0.1,1.9-0.3c0.6-0.2,1-0.5,1.2-0.9s0.4-0.8,0.4-1.2s-0.1-0.8-0.4-1.2c-0.3-0.3-0.7-0.6-1.3-0.8
	c-0.4-0.2-1.2-0.4-2.6-0.7c-1.3-0.3-2.2-0.6-2.8-0.9c-0.7-0.4-1.2-0.8-1.5-1.3s-0.5-1.1-0.5-1.8c0-0.7,0.2-1.4,0.6-2s1-1.1,1.8-1.4
	s1.7-0.5,2.6-0.5c1.1,0,2,0.2,2.8,0.5s1.4,0.8,1.9,1.5c0.4,0.7,0.7,1.4,0.7,2.2l-1.8,0.1c-0.1-0.9-0.4-1.6-1-2
	c-0.6-0.5-1.4-0.7-2.5-0.7s-2,0.2-2.5,0.6s-0.8,0.9-0.8,1.5c0,0.5,0.2,0.9,0.6,1.3c0.4,0.3,1.3,0.7,2.9,1s2.6,0.6,3.2,0.9
	c0.8,0.4,1.4,0.9,1.8,1.5s0.6,1.3,0.6,2c0,0.8-0.2,1.5-0.7,2.2s-1.1,1.2-1.9,1.6c-0.8,0.4-1.7,0.6-2.8,0.6c-1.3,0-2.4-0.2-3.2-0.6
	c-0.9-0.4-1.6-1-2.1-1.7S332.8,33.4,332.8,32.4z M353,35.7c-0.7,0.6-1.3,0.9-1.9,1.2s-1.2,0.3-1.9,0.3c-1.1,0-2-0.3-2.6-0.8
	c-0.6-0.6-0.9-1.3-0.9-2.1c0-0.5,0.1-1,0.3-1.4c0.2-0.4,0.5-0.8,0.9-1c0.4-0.3,0.8-0.5,1.3-0.6c0.3-0.1,0.9-0.2,1.6-0.3
	c1.4-0.2,2.5-0.4,3.1-0.6c0-0.2,0-0.4,0-0.5c0-0.7-0.2-1.2-0.5-1.5c-0.4-0.4-1.1-0.6-2-0.6c-0.8,0-1.4,0.1-1.8,0.4s-0.7,0.8-0.9,1.5
	l-1.7-0.2c0.2-0.7,0.4-1.3,0.8-1.8s0.9-0.8,1.5-1c0.7-0.2,1.5-0.4,2.4-0.4s1.6,0.1,2.2,0.3s1,0.5,1.2,0.8c0.3,0.3,0.4,0.7,0.5,1.2
	c0.1,0.3,0.1,0.8,0.1,1.6v2.3c0,1.6,0,2.7,0.1,3.1c0.1,0.4,0.2,0.8,0.5,1.2h-1.8C353.2,36.6,353,36.2,353,35.7z M352.8,31.8
	c-0.6,0.3-1.6,0.5-2.9,0.7c-0.7,0.1-1.2,0.2-1.5,0.4c-0.3,0.1-0.5,0.3-0.7,0.6s-0.2,0.5-0.2,0.8c0,0.5,0.2,0.9,0.5,1.2
	s0.9,0.5,1.6,0.5s1.3-0.1,1.8-0.4c0.5-0.3,0.9-0.7,1.2-1.2c0.2-0.4,0.3-1,0.3-1.8L352.8,31.8L352.8,31.8z M357.2,37V22.7h1.8V37
	H357.2z M368.3,33.7l1.8,0.2c-0.3,1.1-0.8,1.9-1.6,2.5c-0.8,0.6-1.8,0.9-3,0.9c-1.5,0-2.7-0.5-3.6-1.4s-1.3-2.2-1.3-3.9
	c0-1.8,0.4-3.1,1.3-4.1s2.1-1.5,3.5-1.5s2.5,0.5,3.4,1.4s1.3,2.3,1.3,4c0,0.1,0,0.3,0,0.5h-7.7c0.1,1.1,0.4,2,1,2.6s1.3,0.9,2.2,0.9
	c0.6,0,1.2-0.2,1.6-0.5C367.7,34.9,368.1,34.4,368.3,33.7z M362.5,30.8h5.8c-0.1-0.9-0.3-1.5-0.7-2c-0.6-0.7-1.3-1-2.2-1
	c-0.8,0-1.5,0.3-2,0.8C362.9,29.2,362.6,29.9,362.5,30.8z M371.5,33.9l1.8-0.3c0.1,0.7,0.4,1.2,0.8,1.6c0.4,0.4,1.1,0.5,1.9,0.5
	s1.4-0.2,1.8-0.5s0.6-0.7,0.6-1.2c0-0.4-0.2-0.7-0.5-0.9c-0.2-0.2-0.8-0.4-1.8-0.6c-1.3-0.3-2.2-0.6-2.7-0.8c-0.5-0.2-0.9-0.6-1.1-1
	c-0.3-0.4-0.4-0.9-0.4-1.4s0.1-0.9,0.3-1.3c0.2-0.4,0.5-0.7,0.9-1c0.3-0.2,0.6-0.4,1.1-0.5s1-0.2,1.5-0.2c0.8,0,1.5,0.1,2.1,0.4
	c0.6,0.2,1.1,0.5,1.4,1c0.3,0.4,0.5,0.9,0.6,1.6l-1.7,0.2c-0.1-0.5-0.3-0.9-0.7-1.2c-0.4-0.3-0.9-0.5-1.6-0.5
	c-0.8,0-1.4,0.1-1.7,0.4c-0.3,0.3-0.5,0.6-0.5,0.9c0,0.2,0.1,0.4,0.2,0.6s0.4,0.3,0.7,0.5c0.2,0.1,0.7,0.2,1.5,0.4
	c1.2,0.3,2.1,0.6,2.6,0.8c0.5,0.2,0.9,0.5,1.2,0.9c0.3,0.4,0.4,0.9,0.4,1.5s-0.2,1.1-0.5,1.7s-0.8,0.9-1.5,1.2s-1.4,0.4-2.2,0.4
	c-1.3,0-2.4-0.3-3.1-0.8S371.7,35,371.5,33.9z"/>
<path class="st34" d="M331.5,343h-10.4c-1.1,0-2-0.9-2-2v-10.4c0-1.1,0.9-2,2-2h10.4c1.1,0,2,0.9,2,2V341
	C333.5,342.1,332.6,343,331.5,343z"/>
<rect x="306.9" y="61.1" class="st35" width="282" height="235"/>
<text transform="matrix(0.9798 0 0 1 426.9606 55.625)" class="st31 st36 st37">Covid</text>
<text transform="matrix(-1.546085e-02 -1.1156 0.9999 -1.385721e-02 25.5834 204.6343)" class="st31 st38 st39">Gross In Billion</text>
</svg>
